<svg xmlns="http://www.w3.org/2000/svg" xmlns:xlink="http://www.w3.org/1999/xlink" width="1024" height="400">\n<path  d="M 0 0
L 1024 0
L 1024 400
L 0 400
L 0 0" style="stroke-width:0;stroke:rgba(255,255,255,1.0);fill:rgba(255,255,255,1.0)"/><path  d="M 38 11
L 957 11
L 957 351
L 38 351
L 38 11" style="stroke-width:0;stroke:rgba(255,255,255,1.0);fill:rgba(255,255,255,1.0)"/><path  d="M 38 351
L 957 351" style="stroke-width:2;stroke:rgba(85,85,85,1.0);fill:none"/><path  d="M 38 351
L 38 356" style="stroke-width:2;stroke:rgba(85,85,85,1.0);fill:none"/><text x="5" y="373" style="stroke-width:0;stroke:none;fill:rgba(51,51,51,1.0);font-size:12.8px;font-family:'Roboto Medium',sans-serif">2016-01-18</text><path  d="M 153 351
L 153 356" style="stroke-width:2;stroke:rgba(85,85,85,1.0);fill:none"/><text x="120" y="373" style="stroke-width:0;stroke:none;fill:rgba(51,51,51,1.0);font-size:12.8px;font-family:'Roboto Medium',sans-serif">2016-07-04</text><path  d="M 268 351
L 268 356" style="stroke-width:2;stroke:rgba(85,85,85,1.0);fill:none"/><text x="235" y="373" style="stroke-width:0;stroke:none;fill:rgba(51,51,51,1.0);font-size:12.8px;font-family:'Roboto Medium',sans-serif">2016-12-19</text><path  d="M 383 351
L 383 356" style="stroke-width:2;stroke:rgba(85,85,85,1.0);fill:none"/><text x="350" y="373" style="stroke-width:0;stroke:none;fill:rgba(51,51,51,1.0);font-size:12.8px;font-family:'Roboto Medium',sans-serif">2017-06-05</text><path  d="M 498 351
L 498 356" style="stroke-width:2;stroke:rgba(85,85,85,1.0);fill:none"/><text x="465" y="373" style="stroke-width:0;stroke:none;fill:rgba(51,51,51,1.0);font-size:12.8px;font-family:'Roboto Medium',sans-serif">2017-11-20</text><path  d="M 613 351
L 613 356" style="stroke-width:2;stroke:rgba(85,85,85,1.0);fill:none"/><text x="580" y="373" style="stroke-width:0;stroke:none;fill:rgba(51,51,51,1.0);font-size:12.8px;font-family:'Roboto Medium',sans-serif">2018-05-07</text><path  d="M 728 351
L 728 356" style="stroke-width:2;stroke:rgba(85,85,85,1.0);fill:none"/><text x="695" y="373" style="stroke-width:0;stroke:none;fill:rgba(51,51,51,1.0);font-size:12.8px;font-family:'Roboto Medium',sans-serif">2018-10-22</text><path  d="M 843 351
L 843 356" style="stroke-width:2;stroke:rgba(85,85,85,1.0);fill:none"/><text x="810" y="373" style="stroke-width:0;stroke:none;fill:rgba(51,51,51,1.0);font-size:12.8px;font-family:'Roboto Medium',sans-serif">2019-04-08</text><path  d="M 957 351
L 957 356" style="stroke-width:2;stroke:rgba(85,85,85,1.0);fill:none"/><text x="924" y="373" style="stroke-width:0;stroke:none;fill:rgba(51,51,51,1.0);font-size:12.8px;font-family:'Roboto Medium',sans-serif">2019-09-23</text><text x="483" y="395" style="stroke-width:0;stroke:none;fill:rgba(51,51,51,1.0);font-size:12.8px;font-family:'Roboto Medium',sans-serif">Time</text><path  d="M 959 351
L 959 11" style="stroke-width:2;stroke:rgba(85,85,85,1.0);fill:none"/><path  d="M 959 351
L 964 351" style="stroke-width:2;stroke:rgba(85,85,85,1.0);fill:none"/><text x="969" y="357" style="stroke-width:0;stroke:none;fill:rgba(51,51,51,1.0);font-size:12.8px;font-family:'Roboto Medium',sans-serif">0</text><path  d="M 959 308
L 964 308" style="stroke-width:2;stroke:rgba(85,85,85,1.0);fill:none"/><text x="969" y="314" style="stroke-width:0;stroke:none;fill:rgba(51,51,51,1.0);font-size:12.8px;font-family:'Roboto Medium',sans-serif">1100</text><path  d="M 959 266
L 964 266" style="stroke-width:2;stroke:rgba(85,85,85,1.0);fill:none"/><text x="969" y="272" style="stroke-width:0;stroke:none;fill:rgba(51,51,51,1.0);font-size:12.8px;font-family:'Roboto Medium',sans-serif">2200</text><path  d="M 959 223
L 964 223" style="stroke-width:2;stroke:rgba(85,85,85,1.0);fill:none"/><text x="969" y="229" style="stroke-width:0;stroke:none;fill:rgba(51,51,51,1.0);font-size:12.8px;font-family:'Roboto Medium',sans-serif">3300</text><path  d="M 959 181
L 964 181" style="stroke-width:2;stroke:rgba(85,85,85,1.0);fill:none"/><text x="969" y="187" style="stroke-width:0;stroke:none;fill:rgba(51,51,51,1.0);font-size:12.8px;font-family:'Roboto Medium',sans-serif">4400</text><path  d="M 959 138
L 964 138" style="stroke-width:2;stroke:rgba(85,85,85,1.0);fill:none"/><text x="969" y="144" style="stroke-width:0;stroke:none;fill:rgba(51,51,51,1.0);font-size:12.8px;font-family:'Roboto Medium',sans-serif">5500</text><path  d="M 959 96
L 964 96" style="stroke-width:2;stroke:rgba(85,85,85,1.0);fill:none"/><text x="969" y="102" style="stroke-width:0;stroke:none;fill:rgba(51,51,51,1.0);font-size:12.8px;font-family:'Roboto Medium',sans-serif">6600</text><path  d="M 959 53
L 964 53" style="stroke-width:2;stroke:rgba(85,85,85,1.0);fill:none"/><text x="969" y="59" style="stroke-width:0;stroke:none;fill:rgba(51,51,51,1.0);font-size:12.8px;font-family:'Roboto Medium',sans-serif">7700</text><path  d="M 959 11
L 964 11" style="stroke-width:2;stroke:rgba(85,85,85,1.0);fill:none"/><text x="969" y="17" style="stroke-width:0;stroke:none;fill:rgba(51,51,51,1.0);font-size:12.8px;font-family:'Roboto Medium',sans-serif">8800</text><text x="1009" y="150" style="stroke-width:0;stroke:none;fill:rgba(51,51,51,1.0);font-size:12.8px;font-family:'Roboto Medium',sans-serif" transform="rotate(90.00,1009,150)">Stargazers</text><path  d="M 38 351
L 39 350
L 39 350
L 39 350
L 39 350
L 39 350
L 39 350
L 39 350
L 39 350
L 39 350
L 39 350
L 39 350
L 39 350
L 39 350
L 39 350
L 39 350
L 39 350
L 39 350
L 39 350
L 39 350
L 39 350
L 39 350
L 39 350
L 39 350
L 39 350
L 39 350
L 39 349
L 39 349
L 39 349
L 39 349
L 39 349
L 39 349
L 39 349
L 39 349
L 39 349
L 39 349
L 39 349
L 39 349
L 39 349
L 39 349
L 39 349
L 39 349
L 39 349
L 39 349
L 39 349
L 39 349
L 39 349
L 39 349
L 39 349
L 39 349
L 39 349
L 39 349
L 39 348
L 39 348
L 39 348
L 39 348
L 39 348
L 39 348
L 39 348
L 39 348
L 39 348
L 39 348
L 39 348
L 39 348
L 39 348
L 39 348
L 39 348
L 39 348
L 39 348
L 39 348
L 39 348
L 39 348
L 39 348
L 39 348
L 39 348
L 39 348
L 39 348
L 39 348
L 39 347
L 39 347
L 39 347
L 39 347
L 39 347
L 39 347
L 39 347
L 39 347
L 39 347
L 39 347
L 39 347
L 39 347
L 39 347
L 39 347
L 39 347
L 39 347
L 40 347
L 40 347
L 40 347
L 40 347
L 40 347
L 40 347
L 40 347
L 40 347
L 40 347
L 40 347
L 40 346
L 40 346
L 40 346
L 40 346
L 40 346
L 40 346
L 40 346
L 40 346
L 40 346
L 40 346
L 41 346
L 41 346
L 41 346
L 42 346
L 42 346
L 43 346
L 43 346
L 44 346
L 44 346
L 44 346
L 44 346
L 44 346
L 44 346
L 44 346
L 44 346
L 44 346
L 44 345
L 44 345
L 44 345
L 44 345
L 44 345
L 44 345
L 44 345
L 44 345
L 44 345
L 44 345
L 44 345
L 44 345
L 44 345
L 44 345
L 44 345
L 44 345
L 44 345
L 44 345
L 44 345
L 44 345
L 44 345
L 44 345
L 44 345
L 44 345
L 44 345
L 44 345
L 44 344
L 44 344
L 44 344
L 44 344
L 44 344
L 44 344
L 44 344
L 44 344
L 44 344
L 44 344
L 44 344
L 44 344
L 44 344
L 44 344
L 44 344
L 44 344
L 44 344
L 44 344
L 44 344
L 44 344
L 44 344
L 44 344
L 44 344
L 44 344
L 44 344
L 44 344
L 44 343
L 44 343
L 44 343
L 44 343
L 44 343
L 44 343
L 44 343
L 44 343
L 44 343
L 44 343
L 44 343
L 44 343
L 44 343
L 44 343
L 44 343
L 44 343
L 44 343
L 44 343
L 44 343
L 44 343
L 44 343
L 44 343
L 44 343
L 44 343
L 44 343
L 44 343
L 44 342
L 44 342
L 44 342
L 44 342
L 44 342
L 44 342
L 44 342
L 44 342
L 44 342
L 44 342
L 44 342
L 44 342
L 44 342
L 44 342
L 44 342
L 44 342
L 45 342
L 45 342
L 45 342
L 45 342
L 45 342
L 45 342
L 45 342
L 45 342
L 45 342
L 45 341
L 45 341
L 45 341
L 45 341
L 45 341
L 45 341
L 45 341
L 45 341
L 45 341
L 45 341
L 45 341
L 45 341
L 45 341
L 45 341
L 45 341
L 45 341
L 45 341
L 45 341
L 45 341
L 45 341
L 45 341
L 45 341
L 45 341
L 45 341
L 45 341
L 45 341
L 45 340
L 45 340
L 45 340
L 45 340
L 45 340
L 46 340
L 46 340
L 46 340
L 46 340
L 46 340
L 46 340
L 46 340
L 46 340
L 46 340
L 46 340
L 46 340
L 46 340
L 46 340
L 46 340
L 46 340
L 46 340
L 46 340
L 46 340
L 46 340
L 46 340
L 46 340
L 46 339
L 46 339
L 46 339
L 46 339
L 46 339
L 47 339
L 47 339
L 47 339
L 47 339
L 47 339
L 47 339
L 47 339
L 47 339
L 47 339
L 48 339
L 48 339
L 48 339
L 48 339
L 48 339
L 48 339
L 48 339
L 48 339
L 48 339
L 48 339
L 48 339
L 48 339
L 48 338
L 48 338
L 48 338
L 48 338
L 48 338
L 48 338
L 48 338
L 48 338
L 48 338
L 48 338
L 48 338
L 48 338
L 48 338
L 48 338
L 48 338
L 48 338
L 48 338
L 48 338
L 48 338
L 48 338
L 49 338
L 49 338
L 49 338
L 49 338
L 49 338
L 49 338
L 49 337
L 49 337
L 49 337
L 49 337
L 49 337
L 49 337
L 49 337
L 49 337
L 49 337
L 49 337
L 49 337
L 49 337
L 49 337
L 49 337
L 49 337
L 49 337
L 49 337
L 49 337
L 49 337
L 49 337
L 49 337
L 49 337
L 49 337
L 49 337
L 49 337
L 49 337
L 49 336
L 49 336
L 49 336
L 49 336
L 49 336
L 49 336
L 49 336
L 49 336
L 49 336
L 49 336
L 49 336
L 49 336
L 49 336
L 49 336
L 49 336
L 49 336
L 49 336
L 49 336
L 49 336
L 49 336
L 49 336
L 49 336
L 49 336
L 49 336
L 49 336
L 49 336
L 49 335
L 49 335
L 49 335
L 49 335
L 49 335
L 49 335
L 49 335
L 49 335
L 49 335
L 49 335
L 49 335
L 49 335
L 49 335
L 49 335
L 49 335
L 49 335
L 49 335
L 49 335
L 49 335
L 49 335
L 49 335
L 49 335
L 49 335
L 49 335
L 49 335
L 49 335
L 49 334
L 50 334
L 50 334
L 50 334
L 50 334
L 50 334
L 50 334
L 50 334
L 50 334
L 51 334
L 51 334
L 51 334
L 51 334
L 52 334
L 52 334
L 53 334
L 54 334
L 54 334
L 55 334
L 55 334
L 55 334
L 55 334
L 55 334
L 56 334
L 57 334
L 57 334
L 57 333
L 57 333
L 57 333
L 57 333
L 57 333
L 57 333
L 57 333
L 57 333
L 57 333
L 57 333
L 57 333
L 57 333
L 57 333
L 57 333
L 57 333
L 57 333
L 57 333
L 57 333
L 57 333
L 57 333
L 57 333
L 58 333
L 58 333
L 58 333
L 58 333
L 58 332
L 58 332
L 58 332
L 58 332
L 58 332
L 58 332
L 58 332
L 58 332
L 58 332
L 58 332
L 58 332
L 58 332
L 58 332
L 58 332
L 58 332
L 58 332
L 58 332
L 58 332
L 58 332
L 58 332
L 58 332
L 58 332
L 58 332
L 58 332
L 58 332
L 59 332
L 59 331
L 59 331
L 59 331
L 59 331
L 59 331
L 59 331
L 59 331
L 59 331
L 59 331
L 59 331
L 60 331
L 60 331
L 60 331
L 60 331
L 60 331
L 60 331
L 60 331
L 60 331
L 60 331
L 60 331
L 60 331
L 60 331
L 61 331
L 61 331
L 62 331
L 62 331
L 62 330
L 62 330
L 63 330
L 63 330
L 64 330
L 64 330
L 64 330
L 64 330
L 64 330
L 64 330
L 64 330
L 64 330
L 64 330
L 65 330
L 65 330
L 66 330
L 66 330
L 66 330
L 67 330
L 67 330
L 67 330
L 68 330
L 68 330
L 68 330
L 68 330
L 68 330
L 69 329
L 69 329
L 70 329
L 70 329
L 70 329
L 70 329
L 70 329
L 70 329
L 70 329
L 70 329
L 70 329
L 70 329
L 71 329
L 71 329
L 71 329
L 71 329
L 71 329
L 71 329
L 71 329
L 71 329
L 71 329
L 71 329
L 71 329
L 71 329
L 71 329
L 71 329
L 71 328
L 72 328
L 72 328
L 72 328
L 72 328
L 72 328
L 72 328
L 72 328
L 73 328
L 73 328
L 73 328
L 73 328
L 73 328
L 73 328
L 74 328
L 74 328
L 74 328
L 74 328
L 74 328
L 75 328
L 75 328
L 75 328
L 76 328
L 76 328
L 76 328
L 77 328
L 77 327
L 77 327
L 77 327
L 77 327
L 78 327
L 78 327
L 78 327
L 78 327
L 78 327
L 78 327
L 79 327
L 79 327
L 80 327
L 80 327
L 81 327
L 81 327
L 81 327
L 82 327
L 82 327
L 83 327
L 84 327
L 84 327
L 84 327
L 84 327
L 84 327
L 84 327
L 84 326
L 85 326
L 85 326
L 86 326
L 86 326
L 86 326
L 86 326
L 87 326
L 87 326
L 87 326
L 87 326
L 87 326
L 87 326
L 87 326
L 87 326
L 87 326
L 87 326
L 87 326
L 87 326
L 87 326
L 87 326
L 87 326
L 87 326
L 87 326
L 87 326
L 87 326
L 87 325
L 87 325
L 87 325
L 87 325
L 87 325
L 87 325
L 87 325
L 87 325
L 87 325
L 87 325
L 87 325
L 87 325
L 88 325
L 88 325
L 88 325
L 88 325
L 88 325
L 88 325
L 88 325
L 89 325
L 91 325
L 92 325
L 92 325
L 92 325
L 92 325
L 93 324
L 94 324
L 94 324
L 96 324
L 96 324
L 96 324
L 96 324
L 97 324
L 97 324
L 97 324
L 97 324
L 98 324
L 98 324
L 100 324
L 100 324
L 100 324
L 100 324
L 101 324
L 102 324
L 102 324
L 102 324
L 103 324
L 103 324
L 103 324
L 103 324
L 103 324
L 103 323
L 103 323
L 103 323
L 103 323
L 104 323
L 104 323
L 104 323
L 105 323
L 105 323
L 105 323
L 105 323
L 106 323
L 106 323
L 107 323
L 107 323
L 107 323
L 108 323
L 108 323
L 108 323
L 108 323
L 108 323
L 108 323
L 108 323
L 108 323
L 108 323
L 108 323
L 108 322
L 108 322
L 108 322
L 108 322
L 108 322
L 109 322
L 109 322
L 110 322
L 111 322
L 111 322
L 111 322
L 112 322
L 112 322
L 112 322
L 112 322
L 112 322
L 112 322
L 112 322
L 113 322
L 113 322
L 113 322
L 113 322
L 113 322
L 113 322
L 113 322
L 113 322
L 113 321
L 113 321
L 114 321
L 114 321
L 114 321
L 115 321
L 115 321
L 115 321
L 115 321
L 115 321
L 115 321
L 116 321
L 116 321
L 116 321
L 116 321
L 116 321
L 116 321
L 117 321
L 117 321
L 117 321
L 117 321
L 117 321
L 117 321
L 117 321
L 117 321
L 118 321
L 118 320
L 118 320
L 118 320
L 118 320
L 118 320
L 119 320
L 120 320
L 120 320
L 120 320
L 120 320
L 121 320
L 122 320
L 122 320
L 123 320
L 124 320
L 124 320
L 124 320
L 125 320
L 125 320
L 125 320
L 125 320
L 125 320
L 125 320
L 125 320
L 126 320
L 126 320
L 126 319
L 126 319
L 126 319
L 126 319
L 126 319
L 126 319
L 127 319
L 127 319
L 127 319
L 127 319
L 127 319
L 127 319
L 127 319
L 127 319
L 127 319
L 127 319
L 127 319
L 127 319
L 128 319
L 129 319
L 129 319
L 130 319
L 130 319
L 130 319
L 131 319
L 131 319
L 131 318
L 131 318
L 131 318
L 131 318
L 131 318
L 131 318
L 131 318
L 131 318
L 131 318
L 131 318
L 131 318
L 131 318
L 131 318
L 131 318
L 131 318
L 131 318
L 131 318
L 131 318
L 131 318
L 131 318
L 131 318
L 131 318
L 131 318
L 131 318
L 131 318
L 131 318
L 131 317
L 131 317
L 131 317
L 131 317
L 131 317
L 131 317
L 131 317
L 131 317
L 131 317
L 131 317
L 131 317
L 131 317
L 131 317
L 131 317
L 131 317
L 131 317
L 131 317
L 131 317
L 131 317
L 131 317
L 131 317
L 131 317
L 131 317
L 131 317
L 131 317
L 131 317
L 131 316
L 132 316
L 132 316
L 132 316
L 132 316
L 132 316
L 132 316
L 132 316
L 132 316
L 132 316
L 132 316
L 132 316
L 132 316
L 132 316
L 132 316
L 132 316
L 132 316
L 132 316
L 133 316
L 133 316
L 133 316
L 134 316
L 134 316
L 134 316
L 134 316
L 134 315
L 134 315
L 134 315
L 134 315
L 134 315
L 134 315
L 135 315
L 135 315
L 135 315
L 135 315
L 135 315
L 135 315
L 135 315
L 135 315
L 135 315
L 135 315
L 135 315
L 136 315
L 137 315
L 137 315
L 137 315
L 137 315
L 138 315
L 138 315
L 138 315
L 138 315
L 138 314
L 138 314
L 139 314
L 139 314
L 139 314
L 139 314
L 139 314
L 139 314
L 140 314
L 140 314
L 140 314
L 140 314
L 140 314
L 141 314
L 141 314
L 141 314
L 141 314
L 141 314
L 142 314
L 142 314
L 142 314
L 142 314
L 143 314
L 143 314
L 143 314
L 144 314
L 144 313
L 144 313
L 144 313
L 144 313
L 145 313
L 145 313
L 145 313
L 145 313
L 145 313
L 146 313
L 146 313
L 146 313
L 146 313
L 146 313
L 146 313
L 147 313
L 147 313
L 147 313
L 148 313
L 148 313
L 148 313
L 148 313
L 148 313
L 148 313
L 148 313
L 148 313
L 148 312
L 148 312
L 148 312
L 149 312
L 149 312
L 149 312
L 149 312
L 149 312
L 149 312
L 149 312
L 149 312
L 149 312
L 149 312
L 149 312
L 149 312
L 149 312
L 149 312
L 149 312
L 150 312
L 150 312
L 150 312
L 150 312
L 150 312
L 150 312
L 150 312
L 150 312
L 150 311
L 150 311
L 150 311
L 151 311
L 151 311
L 151 311
L 151 311
L 151 311
L 151 311
L 151 311
L 152 311
L 152 311
L 153 311
L 153 311
L 153 311
L 153 311
L 153 311
L 153 311
L 154 311
L 154 311
L 154 311
L 154 311
L 155 311
L 155 311
L 155 311
L 155 311
L 155 310
L 155 310
L 156 310
L 156 310
L 156 310
L 156 310
L 158 310
L 159 310
L 159 310
L 159 310
L 159 310
L 160 310
L 160 310
L 160 310
L 160 310
L 161 310
L 161 310
L 162 310
L 163 310
L 163 310
L 163 310
L 163 310
L 163 310
L 163 310
L 163 310
L 164 310
L 164 309
L 164 309
L 164 309
L 164 309
L 165 309
L 165 309
L 165 309
L 167 309
L 167 309
L 167 309
L 168 309
L 168 309
L 168 309
L 169 309
L 169 309
L 169 309
L 170 309
L 170 309
L 170 309
L 170 309
L 170 309
L 170 309
L 170 309
L 170 309
L 172 309
L 172 309
L 172 308
L 173 308
L 174 308
L 174 308
L 174 308
L 174 308
L 174 308
L 175 308
L 175 308
L 175 308
L 175 308
L 175 308
L 176 308
L 176 308
L 177 308
L 178 308
L 178 308
L 178 308
L 179 308
L 179 308
L 179 308
L 179 308
L 179 308
L 180 308
L 180 308
L 182 307
L 182 307
L 182 307
L 182 307
L 182 307
L 183 307
L 183 307
L 183 307
L 183 307
L 183 307
L 183 307
L 183 307
L 183 307
L 183 307
L 184 307
L 184 307
L 185 307
L 185 307
L 185 307
L 185 307
L 186 307
L 187 307
L 187 307
L 187 307
L 187 307
L 188 307
L 188 306
L 188 306
L 189 306
L 189 306
L 189 306
L 189 306
L 189 306
L 189 306
L 189 306
L 190 306
L 191 306
L 191 306
L 191 306
L 192 306
L 192 306
L 192 306
L 192 306
L 193 306
L 193 306
L 193 306
L 193 306
L 194 306
L 194 306
L 194 306
L 194 306
L 195 306
L 195 305
L 196 305
L 197 305
L 197 305
L 198 305
L 198 305
L 198 305
L 198 305
L 198 305
L 198 305
L 198 305
L 198 305
L 198 305
L 198 305
L 199 305
L 199 305
L 199 305
L 199 305
L 200 305
L 200 305
L 200 305
L 201 305
L 201 305
L 201 305
L 202 305
L 202 305
L 202 304
L 202 304
L 202 304
L 202 304
L 202 304
L 202 304
L 202 304
L 202 304
L 202 304
L 202 304
L 202 304
L 202 304
L 203 304
L 203 304
L 205 304
L 205 304
L 205 304
L 206 304
L 206 304
L 206 304
L 206 304
L 206 304
L 207 304
L 207 304
L 208 304
L 208 304
L 208 303
L 208 303
L 208 303
L 208 303
L 208 303
L 209 303
L 209 303
L 209 303
L 209 303
L 209 303
L 210 303
L 211 303
L 211 303
L 211 303
L 211 303
L 211 303
L 211 303
L 211 303
L 211 303
L 211 303
L 212 303
L 212 303
L 212 303
L 212 303
L 212 303
L 212 303
L 212 302
L 213 302
L 213 302
L 213 302
L 213 302
L 213 302
L 213 302
L 213 302
L 214 302
L 217 302
L 217 302
L 218 302
L 218 302
L 218 302
L 219 302
L 220 302
L 220 302
L 220 302
L 221 302
L 221 302
L 221 302
L 221 302
L 221 302
L 222 302
L 222 302
L 222 302
L 223 301
L 223 301
L 223 301
L 223 301
L 223 301
L 224 301
L 224 301
L 224 301
L 224 301
L 225 301
L 225 301
L 225 301
L 225 301
L 226 301
L 226 301
L 226 301
L 226 301
L 226 301
L 227 301
L 227 301
L 227 301
L 228 301
L 228 301
L 228 301
L 230 301
L 230 301
L 230 300
L 230 300
L 230 300
L 230 300
L 231 300
L 231 300
L 231 300
L 231 300
L 231 300
L 232 300
L 232 300
L 232 300
L 232 300
L 233 300
L 234 300
L 235 300
L 235 300
L 235 300
L 235 300
L 236 300
L 236 300
L 236 300
L 236 300
L 236 300
L 236 300
L 237 300
L 237 299
L 237 299
L 239 299
L 239 299
L 239 299
L 240 299
L 240 299
L 241 299
L 241 299
L 241 299
L 241 299
L 241 299
L 241 299
L 241 299
L 242 299
L 242 299
L 243 299
L 244 299
L 244 299
L 245 299
L 245 299
L 245 299
L 245 299
L 247 299
L 247 299
L 247 298
L 248 298
L 248 298
L 248 298
L 248 298
L 248 298
L 248 298
L 248 298
L 249 298
L 249 298
L 249 298
L 250 298
L 250 298
L 250 298
L 250 298
L 250 298
L 250 298
L 251 298
L 251 298
L 251 298
L 251 298
L 252 298
L 252 298
L 252 298
L 252 298
L 252 298
L 252 297
L 254 297
L 254 297
L 254 297
L 254 297
L 254 297
L 254 297
L 254 297
L 254 297
L 254 297
L 255 297
L 255 297
L 255 297
L 255 297
L 256 297
L 256 297
L 256 297
L 257 297
L 258 297
L 258 297
L 258 297
L 258 297
L 258 297
L 259 297
L 259 297
L 259 297
L 260 296
L 260 296
L 260 296
L 260 296
L 260 296
L 261 296
L 261 296
L 261 296
L 261 296
L 261 296
L 261 296
L 263 296
L 263 296
L 264 296
L 264 296
L 264 296
L 265 296
L 265 296
L 265 296
L 265 296
L 266 296
L 266 296
L 266 296
L 267 296
L 268 296
L 268 296
L 268 295
L 268 295
L 269 295
L 269 295
L 269 295
L 269 295
L 269 295
L 269 295
L 269 295
L 269 295
L 269 295
L 269 295
L 269 295
L 269 295
L 269 295
L 270 295
L 270 295
L 270 295
L 270 295
L 270 295
L 270 295
L 270 295
L 270 295
L 271 295
L 271 295
L 271 295
L 271 294
L 272 294
L 272 294
L 272 294
L 273 294
L 273 294
L 273 294
L 273 294
L 273 294
L 273 294
L 274 294
L 274 294
L 274 294
L 274 294
L 274 294
L 274 294
L 274 294
L 274 294
L 275 294
L 275 294
L 275 294
L 275 294
L 276 294
L 276 294
L 276 294
L 276 294
L 276 293
L 278 293
L 278 293
L 278 293
L 278 293
L 278 293
L 279 293
L 279 293
L 279 293
L 280 293
L 280 293
L 280 293
L 280 293
L 281 293
L 281 293
L 281 293
L 281 293
L 281 293
L 281 293
L 281 293
L 282 293
L 282 293
L 282 293
L 282 293
L 283 293
L 283 293
L 283 292
L 283 292
L 283 292
L 283 292
L 283 292
L 284 292
L 284 292
L 284 292
L 285 292
L 285 292
L 285 292
L 285 292
L 286 292
L 287 292
L 287 292
L 287 292
L 287 292
L 288 292
L 288 292
L 288 292
L 288 292
L 288 292
L 289 292
L 289 292
L 289 292
L 289 292
L 289 291
L 289 291
L 291 291
L 292 291
L 292 291
L 292 291
L 292 291
L 296 291
L 299 291
L 299 291
L 300 291
L 301 291
L 302 291
L 302 291
L 302 291
L 302 291
L 302 291
L 302 291
L 303 291
L 303 291
L 303 291
L 304 291
L 304 291
L 304 291
L 304 291
L 304 290
L 304 290
L 304 290
L 304 290
L 304 290
L 306 290
L 306 290
L 306 290
L 307 290
L 307 290
L 308 290
L 308 290
L 308 290
L 308 290
L 309 290
L 309 290
L 309 290
L 309 290
L 311 290
L 311 290
L 311 290
L 311 290
L 311 290
L 311 290
L 311 290
L 311 290
L 311 289
L 311 289
L 311 289
L 311 289
L 311 289
L 312 289
L 312 289
L 312 289
L 312 289
L 312 289
L 312 289
L 313 289
L 313 289
L 313 289
L 315 289
L 315 289
L 315 289
L 316 289
L 317 289
L 317 289
L 317 289
L 317 289
L 317 289
L 318 289
L 318 289
L 318 289
L 318 288
L 318 288
L 318 288
L 318 288
L 318 288
L 319 288
L 319 288
L 319 288
L 319 288
L 319 288
L 319 288
L 319 288
L 320 288
L 320 288
L 320 288
L 321 288
L 321 288
L 321 288
L 321 288
L 321 288
L 321 288
L 321 288
L 321 288
L 321 288
L 322 288
L 322 288
L 322 287
L 322 287
L 322 287
L 323 287
L 323 287
L 323 287
L 323 287
L 323 287
L 324 287
L 324 287
L 324 287
L 324 287
L 324 287
L 324 287
L 324 287
L 325 287
L 325 287
L 326 287
L 326 287
L 326 287
L 326 287
L 326 287
L 326 287
L 326 287
L 327 287
L 327 287
L 327 286
L 328 286
L 328 286
L 328 286
L 328 286
L 328 286
L 328 286
L 328 286
L 328 286
L 328 286
L 329 286
L 330 286
L 330 286
L 330 286
L 330 286
L 330 286
L 330 286
L 330 286
L 330 286
L 330 286
L 331 286
L 331 286
L 331 286
L 332 286
L 332 286
L 332 286
L 332 285
L 332 285
L 332 285
L 332 285
L 332 285
L 332 285
L 332 285
L 333 285
L 333 285
L 333 285
L 334 285
L 334 285
L 334 285
L 334 285
L 334 285
L 334 285
L 334 285
L 334 285
L 334 285
L 334 285
L 334 285
L 334 285
L 334 285
L 334 285
L 334 285
L 334 285
L 335 284
L 335 284
L 335 284
L 335 284
L 335 284
L 336 284
L 336 284
L 336 284
L 336 284
L 336 284
L 336 284
L 336 284
L 336 284
L 336 284
L 336 284
L 336 284
L 337 284
L 337 284
L 337 284
L 337 284
L 337 284
L 337 284
L 338 284
L 338 284
L 338 284
L 338 284
L 338 283
L 339 283
L 339 283
L 339 283
L 339 283
L 339 283
L 339 283
L 340 283
L 341 283
L 341 283
L 341 283
L 341 283
L 341 283
L 341 283
L 341 283
L 342 283
L 342 283
L 342 283
L 342 283
L 342 283
L 343 283
L 344 283
L 344 283
L 345 283
L 345 283
L 345 283
L 345 282
L 345 282
L 345 282
L 345 282
L 345 282
L 346 282
L 346 282
L 346 282
L 347 282
L 347 282
L 347 282
L 347 282
L 347 282
L 347 282
L 348 282
L 348 282
L 348 282
L 349 282
L 350 282
L 350 282
L 350 282
L 350 282
L 350 282
L 350 282
L 350 282
L 350 281
L 350 281
L 350 281
L 351 281
L 351 281
L 351 281
L 351 281
L 351 281
L 351 281
L 351 281
L 351 281
L 351 281
L 352 281
L 352 281
L 352 281
L 352 281
L 352 281
L 352 281
L 354 281
L 354 281
L 354 281
L 354 281
L 355 281
L 355 281
L 355 281
L 355 281
L 355 280
L 356 280
L 356 280
L 357 280
L 357 280
L 357 280
L 357 280
L 357 280
L 357 280
L 357 280
L 357 280
L 357 280
L 357 280
L 358 280
L 360 280
L 360 280
L 360 280
L 360 280
L 360 280
L 360 280
L 360 280
L 360 280
L 361 280
L 361 280
L 361 280
L 361 280
L 361 279
L 362 279
L 362 279
L 362 279
L 363 279
L 363 279
L 363 279
L 363 279
L 364 279
L 364 279
L 365 279
L 365 279
L 365 279
L 365 279
L 365 279
L 365 279
L 365 279
L 365 279
L 365 279
L 366 279
L 366 279
L 366 279
L 366 279
L 367 279
L 367 279
L 367 279
L 367 278
L 367 278
L 367 278
L 367 278
L 367 278
L 369 278
L 369 278
L 369 278
L 369 278
L 369 278
L 369 278
L 369 278
L 369 278
L 369 278
L 370 278
L 370 278
L 370 278
L 370 278
L 370 278
L 371 278
L 371 278
L 371 278
L 371 278
L 373 278
L 373 278
L 373 278
L 373 277
L 373 277
L 374 277
L 375 277
L 375 277
L 375 277
L 375 277
L 375 277
L 375 277
L 375 277
L 375 277
L 375 277
L 376 277
L 376 277
L 376 277
L 376 277
L 376 277
L 376 277
L 376 277
L 377 277
L 378 277
L 380 277
L 380 277
L 380 277
L 380 277
L 381 277
L 381 276
L 381 276
L 383 276
L 383 276
L 383 276
L 383 276
L 383 276
L 383 276
L 384 276
L 384 276
L 384 276
L 385 276
L 385 276
L 385 276
L 385 276
L 385 276
L 385 276
L 386 276
L 386 276
L 386 276
L 387 276
L 387 276
L 388 276
L 388 276
L 388 276
L 388 276
L 389 275
L 389 275
L 389 275
L 389 275
L 389 275
L 389 275
L 389 275
L 389 275
L 390 275
L 390 275
L 390 275
L 390 275
L 390 275
L 390 275
L 390 275
L 391 275
L 392 275
L 393 275
L 393 275
L 394 275
L 395 275
L 395 275
L 395 275
L 395 275
L 395 275
L 395 275
L 395 274
L 395 274
L 395 274
L 395 274
L 396 274
L 396 274
L 397 274
L 397 274
L 397 274
L 397 274
L 398 274
L 398 274
L 398 274
L 398 274
L 398 274
L 398 274
L 398 274
L 398 274
L 399 274
L 399 274
L 399 274
L 399 274
L 400 274
L 400 274
L 400 274
L 400 273
L 400 273
L 400 273
L 401 273
L 401 273
L 401 273
L 402 273
L 402 273
L 402 273
L 402 273
L 402 273
L 402 273
L 402 273
L 402 273
L 402 273
L 403 273
L 403 273
L 403 273
L 403 273
L 404 273
L 404 273
L 404 273
L 404 273
L 404 273
L 404 273
L 404 273
L 405 272
L 405 272
L 405 272
L 406 272
L 407 272
L 407 272
L 408 272
L 408 272
L 408 272
L 408 272
L 408 272
L 408 272
L 408 272
L 408 272
L 409 272
L 409 272
L 409 272
L 409 272
L 409 272
L 409 272
L 410 272
L 410 272
L 410 272
L 410 272
L 410 272
L 410 272
L 410 271
L 411 271
L 411 271
L 412 271
L 412 271
L 412 271
L 412 271
L 412 271
L 412 271
L 412 271
L 412 271
L 412 271
L 412 271
L 413 271
L 413 271
L 413 271
L 413 271
L 413 271
L 413 271
L 413 271
L 414 271
L 414 271
L 414 271
L 414 271
L 414 271
L 414 271
L 414 270
L 414 270
L 414 270
L 414 270
L 414 270
L 414 270
L 414 270
L 415 270
L 415 270
L 416 270
L 416 270
L 416 270
L 416 270
L 416 270
L 416 270
L 416 270
L 417 270
L 417 270
L 417 270
L 417 270
L 417 270
L 417 270
L 418 270
L 418 270
L 418 270
L 418 270
L 418 269
L 419 269
L 419 269
L 419 269
L 419 269
L 419 269
L 419 269
L 419 269
L 419 269
L 419 269
L 419 269
L 419 269
L 419 269
L 419 269
L 419 269
L 419 269
L 419 269
L 419 269
L 419 269
L 419 269
L 419 269
L 419 269
L 419 269
L 419 269
L 419 269
L 419 269
L 420 268
L 420 268
L 420 268
L 420 268
L 421 268
L 421 268
L 421 268
L 421 268
L 421 268
L 421 268
L 421 268
L 421 268
L 421 268
L 421 268
L 421 268
L 421 268
L 422 268
L 422 268
L 422 268
L 422 268
L 422 268
L 422 268
L 422 268
L 422 268
L 422 268
L 422 268
L 422 267
L 422 267
L 422 267
L 422 267
L 422 267
L 422 267
L 422 267
L 422 267
L 422 267
L 422 267
L 422 267
L 422 267
L 422 267
L 422 267
L 422 267
L 422 267
L 422 267
L 422 267
L 422 267
L 422 267
L 422 267
L 422 267
L 422 267
L 422 267
L 422 267
L 422 267
L 422 266
L 422 266
L 422 266
L 422 266
L 422 266
L 422 266
L 422 266
L 423 266
L 423 266
L 423 266
L 423 266
L 423 266
L 423 266
L 423 266
L 423 266
L 423 266
L 423 266
L 423 266
L 423 266
L 423 266
L 423 266
L 423 266
L 423 266
L 423 266
L 423 266
L 423 266
L 423 265
L 423 265
L 423 265
L 423 265
L 423 265
L 423 265
L 423 265
L 423 265
L 423 265
L 423 265
L 423 265
L 423 265
L 423 265
L 423 265
L 423 265
L 423 265
L 423 265
L 423 265
L 423 265
L 423 265
L 423 265
L 423 265
L 423 265
L 423 265
L 423 265
L 423 264
L 423 264
L 423 264
L 423 264
L 423 264
L 423 264
L 423 264
L 423 264
L 423 264
L 423 264
L 423 264
L 423 264
L 423 264
L 423 264
L 423 264
L 423 264
L 423 264
L 423 264
L 423 264
L 423 264
L 423 264
L 423 264
L 423 264
L 423 264
L 423 264
L 423 264
L 423 263
L 423 263
L 423 263
L 423 263
L 423 263
L 423 263
L 423 263
L 423 263
L 423 263
L 423 263
L 423 263
L 423 263
L 423 263
L 423 263
L 423 263
L 423 263
L 423 263
L 423 263
L 423 263
L 423 263
L 423 263
L 423 263
L 423 263
L 424 263
L 424 263
L 424 263
L 424 262
L 424 262
L 424 262
L 424 262
L 424 262
L 424 262
L 424 262
L 424 262
L 424 262
L 424 262
L 424 262
L 425 262
L 425 262
L 425 262
L 425 262
L 425 262
L 425 262
L 425 262
L 425 262
L 425 262
L 425 262
L 425 262
L 425 262
L 425 262
L 426 262
L 426 262
L 426 261
L 426 261
L 426 261
L 426 261
L 426 261
L 426 261
L 426 261
L 426 261
L 426 261
L 426 261
L 426 261
L 426 261
L 426 261
L 426 261
L 426 261
L 426 261
L 426 261
L 426 261
L 426 261
L 426 261
L 427 261
L 427 261
L 427 261
L 427 261
L 427 261
L 427 261
L 427 260
L 427 260
L 427 260
L 427 260
L 427 260
L 427 260
L 427 260
L 427 260
L 427 260
L 427 260
L 427 260
L 427 260
L 427 260
L 427 260
L 427 260
L 427 260
L 427 260
L 427 260
L 427 260
L 427 260
L 427 260
L 427 260
L 427 260
L 427 260
L 427 260
L 427 260
L 427 259
L 427 259
L 427 259
L 427 259
L 427 259
L 427 259
L 428 259
L 428 259
L 428 259
L 428 259
L 428 259
L 428 259
L 428 259
L 428 259
L 428 259
L 428 259
L 428 259
L 428 259
L 428 259
L 428 259
L 428 259
L 428 259
L 428 259
L 429 259
L 429 259
L 429 259
L 429 258
L 429 258
L 429 258
L 429 258
L 430 258
L 430 258
L 430 258
L 430 258
L 430 258
L 430 258
L 430 258
L 430 258
L 430 258
L 431 258
L 431 258
L 431 258
L 431 258
L 431 258
L 431 258
L 431 258
L 431 258
L 431 258
L 431 258
L 431 258
L 431 258
L 431 258
L 431 257
L 431 257
L 431 257
L 431 257
L 431 257
L 431 257
L 432 257
L 432 257
L 432 257
L 432 257
L 432 257
L 432 257
L 432 257
L 432 257
L 432 257
L 432 257
L 432 257
L 433 257
L 433 257
L 434 257
L 434 257
L 434 257
L 434 257
L 435 257
L 435 257
L 435 256
L 435 256
L 435 256
L 436 256
L 436 256
L 436 256
L 436 256
L 436 256
L 436 256
L 436 256
L 437 256
L 437 256
L 437 256
L 437 256
L 437 256
L 437 256
L 437 256
L 438 256
L 438 256
L 438 256
L 438 256
L 438 256
L 438 256
L 438 256
L 438 256
L 438 256
L 438 255
L 438 255
L 438 255
L 438 255
L 438 255
L 439 255
L 439 255
L 439 255
L 440 255
L 440 255
L 440 255
L 440 255
L 440 255
L 440 255
L 440 255
L 441 255
L 441 255
L 441 255
L 441 255
L 441 255
L 441 255
L 441 255
L 441 255
L 441 255
L 441 255
L 441 255
L 441 254
L 441 254
L 442 254
L 442 254
L 442 254
L 442 254
L 442 254
L 442 254
L 442 254
L 442 254
L 442 254
L 442 254
L 442 254
L 442 254
L 442 254
L 442 254
L 442 254
L 442 254
L 443 254
L 443 254
L 443 254
L 443 254
L 443 254
L 443 254
L 444 254
L 444 254
L 444 253
L 445 253
L 445 253
L 445 253
L 445 253
L 445 253
L 446 253
L 446 253
L 446 253
L 446 253
L 446 253
L 446 253
L 446 253
L 446 253
L 446 253
L 446 253
L 446 253
L 446 253
L 446 253
L 446 253
L 446 253
L 446 253
L 446 253
L 446 253
L 446 253
L 446 253
L 447 252
L 447 252
L 447 252
L 447 252
L 447 252
L 447 252
L 447 252
L 447 252
L 447 252
L 447 252
L 448 252
L 448 252
L 448 252
L 448 252
L 448 252
L 448 252
L 448 252
L 448 252
L 448 252
L 448 252
L 448 252
L 448 252
L 448 252
L 448 252
L 448 252
L 448 252
L 448 251
L 448 251
L 448 251
L 449 251
L 449 251
L 449 251
L 449 251
L 449 251
L 449 251
L 450 251
L 450 251
L 450 251
L 450 251
L 450 251
L 451 251
L 451 251
L 451 251
L 451 251
L 451 251
L 451 251
L 451 251
L 451 251
L 451 251
L 451 251
L 451 251
L 452 251
L 452 250
L 452 250
L 452 250
L 452 250
L 452 250
L 452 250
L 453 250
L 453 250
L 453 250
L 453 250
L 453 250
L 454 250
L 454 250
L 454 250
L 454 250
L 455 250
L 455 250
L 455 250
L 455 250
L 455 250
L 455 250
L 455 250
L 455 250
L 455 250
L 456 250
L 456 250
L 456 249
L 456 249
L 456 249
L 456 249
L 456 249
L 456 249
L 456 249
L 456 249
L 456 249
L 456 249
L 456 249
L 456 249
L 456 249
L 456 249
L 456 249
L 456 249
L 456 249
L 456 249
L 457 249
L 457 249
L 457 249
L 457 249
L 457 249
L 457 249
L 457 249
L 458 249
L 458 248
L 458 248
L 458 248
L 458 248
L 458 248
L 458 248
L 459 248
L 459 248
L 459 248
L 459 248
L 460 248
L 460 248
L 460 248
L 460 248
L 460 248
L 460 248
L 460 248
L 460 248
L 460 248
L 460 248
L 460 248
L 460 248
L 460 248
L 460 248
L 460 248
L 461 247
L 461 247
L 461 247
L 461 247
L 461 247
L 461 247
L 461 247
L 461 247
L 461 247
L 461 247
L 462 247
L 462 247
L 462 247
L 462 247
L 462 247
L 462 247
L 462 247
L 462 247
L 462 247
L 462 247
L 463 247
L 463 247
L 463 247
L 463 247
L 463 247
L 463 247
L 463 246
L 463 246
L 463 246
L 464 246
L 464 246
L 465 246
L 466 246
L 467 246
L 467 246
L 469 246
L 469 246
L 469 246
L 469 246
L 470 246
L 470 246
L 470 246
L 470 246
L 470 246
L 470 246
L 470 246
L 470 246
L 470 246
L 470 246
L 470 246
L 470 246
L 470 246
L 470 245
L 471 245
L 471 245
L 471 245
L 471 245
L 471 245
L 471 245
L 471 245
L 471 245
L 471 245
L 471 245
L 471 245
L 471 245
L 471 245
L 471 245
L 471 245
L 471 245
L 471 245
L 471 245
L 471 245
L 471 245
L 471 245
L 471 245
L 471 245
L 471 245
L 471 245
L 471 244
L 471 244
L 471 244
L 471 244
L 472 244
L 472 244
L 472 244
L 472 244
L 472 244
L 472 244
L 473 244
L 473 244
L 473 244
L 473 244
L 473 244
L 474 244
L 474 244
L 474 244
L 474 244
L 474 244
L 474 244
L 474 244
L 474 244
L 474 244
L 474 244
L 475 244
L 475 243
L 475 243
L 475 243
L 475 243
L 475 243
L 475 243
L 475 243
L 475 243
L 475 243
L 475 243
L 475 243
L 475 243
L 475 243
L 475 243
L 475 243
L 475 243
L 475 243
L 476 243
L 476 243
L 476 243
L 476 243
L 477 243
L 477 243
L 477 243
L 477 243
L 477 243
L 478 242
L 478 242
L 479 242
L 479 242
L 479 242
L 479 242
L 479 242
L 479 242
L 479 242
L 479 242
L 479 242
L 479 242
L 480 242
L 480 242
L 480 242
L 480 242
L 480 242
L 480 242
L 481 242
L 481 242
L 481 242
L 481 242
L 481 242
L 482 242
L 482 242
L 482 242
L 483 241
L 483 241
L 483 241
L 483 241
L 483 241
L 484 241
L 484 241
L 484 241
L 484 241
L 484 241
L 484 241
L 484 241
L 484 241
L 484 241
L 484 241
L 485 241
L 485 241
L 485 241
L 485 241
L 485 241
L 485 241
L 485 241
L 485 241
L 485 241
L 485 241
L 485 241
L 486 240
L 486 240
L 486 240
L 486 240
L 486 240
L 486 240
L 486 240
L 486 240
L 486 240
L 488 240
L 488 240
L 488 240
L 488 240
L 488 240
L 488 240
L 488 240
L 489 240
L 489 240
L 489 240
L 489 240
L 489 240
L 489 240
L 489 240
L 490 240
L 490 240
L 490 239
L 490 239
L 490 239
L 490 239
L 490 239
L 490 239
L 491 239
L 491 239
L 491 239
L 491 239
L 491 239
L 492 239
L 492 239
L 493 239
L 493 239
L 493 239
L 494 239
L 494 239
L 494 239
L 494 239
L 494 239
L 494 239
L 494 239
L 494 239
L 494 239
L 494 239
L 494 238
L 495 238
L 495 238
L 495 238
L 495 238
L 495 238
L 495 238
L 495 238
L 495 238
L 495 238
L 496 238
L 496 238
L 496 238
L 496 238
L 496 238
L 496 238
L 496 238
L 497 238
L 498 238
L 498 238
L 498 238
L 498 238
L 498 238
L 498 238
L 499 238
L 499 238
L 499 237
L 499 237
L 499 237
L 499 237
L 499 237
L 499 237
L 499 237
L 499 237
L 499 237
L 499 237
L 499 237
L 500 237
L 500 237
L 500 237
L 500 237
L 500 237
L 500 237
L 500 237
L 500 237
L 500 237
L 501 237
L 501 237
L 501 237
L 501 237
L 501 237
L 502 237
L 502 236
L 502 236
L 503 236
L 503 236
L 503 236
L 503 236
L 503 236
L 503 236
L 503 236
L 503 236
L 503 236
L 503 236
L 503 236
L 503 236
L 503 236
L 503 236
L 503 236
L 503 236
L 504 236
L 504 236
L 504 236
L 504 236
L 504 236
L 504 236
L 504 236
L 504 236
L 504 235
L 505 235
L 505 235
L 505 235
L 505 235
L 505 235
L 505 235
L 505 235
L 505 235
L 505 235
L 506 235
L 507 235
L 507 235
L 507 235
L 507 235
L 508 235
L 508 235
L 508 235
L 508 235
L 508 235
L 508 235
L 508 235
L 508 235
L 508 235
L 508 235
L 508 235
L 508 234
L 508 234
L 508 234
L 508 234
L 508 234
L 508 234
L 508 234
L 508 234
L 508 234
L 508 234
L 508 234
L 508 234
L 508 234
L 508 234
L 508 234
L 508 234
L 508 234
L 508 234
L 508 234
L 509 234
L 509 234
L 509 234
L 509 234
L 509 234
L 509 234
L 509 234
L 509 233
L 509 233
L 509 233
L 509 233
L 509 233
L 509 233
L 509 233
L 509 233
L 510 233
L 510 233
L 510 233
L 510 233
L 510 233
L 510 233
L 510 233
L 510 233
L 510 233
L 510 233
L 510 233
L 510 233
L 510 233
L 510 233
L 511 233
L 511 233
L 511 233
L 511 233
L 512 232
L 512 232
L 512 232
L 512 232
L 512 232
L 512 232
L 512 232
L 512 232
L 513 232
L 513 232
L 513 232
L 513 232
L 513 232
L 513 232
L 513 232
L 513 232
L 513 232
L 513 232
L 513 232
L 513 232
L 513 232
L 513 232
L 513 232
L 513 232
L 513 232
L 514 232
L 514 231
L 514 231
L 514 231
L 514 231
L 514 231
L 514 231
L 514 231
L 514 231
L 514 231
L 514 231
L 514 231
L 514 231
L 514 231
L 514 231
L 514 231
L 514 231
L 514 231
L 514 231
L 514 231
L 514 231
L 514 231
L 514 231
L 515 231
L 515 231
L 515 231
L 515 230
L 515 230
L 515 230
L 515 230
L 515 230
L 515 230
L 516 230
L 516 230
L 516 230
L 516 230
L 517 230
L 517 230
L 517 230
L 517 230
L 517 230
L 518 230
L 518 230
L 518 230
L 518 230
L 518 230
L 518 230
L 518 230
L 518 230
L 518 230
L 518 230
L 518 230
L 519 229
L 519 229
L 519 229
L 519 229
L 519 229
L 519 229
L 519 229
L 519 229
L 519 229
L 520 229
L 520 229
L 520 229
L 520 229
L 520 229
L 520 229
L 520 229
L 520 229
L 520 229
L 520 229
L 520 229
L 520 229
L 521 229
L 521 229
L 521 229
L 522 229
L 522 229
L 523 228
L 523 228
L 523 228
L 523 228
L 523 228
L 523 228
L 523 228
L 523 228
L 523 228
L 523 228
L 523 228
L 523 228
L 523 228
L 523 228
L 523 228
L 523 228
L 523 228
L 523 228
L 523 228
L 523 228
L 523 228
L 523 228
L 523 228
L 523 228
L 523 228
L 523 228
L 523 227
L 523 227
L 524 227
L 524 227
L 524 227
L 524 227
L 525 227
L 525 227
L 525 227
L 525 227
L 525 227
L 525 227
L 525 227
L 525 227
L 525 227
L 525 227
L 526 227
L 527 227
L 527 227
L 527 227
L 527 227
L 527 227
L 528 227
L 528 227
L 528 227
L 528 227
L 528 226
L 528 226
L 528 226
L 529 226
L 529 226
L 529 226
L 529 226
L 529 226
L 529 226
L 529 226
L 529 226
L 529 226
L 529 226
L 529 226
L 529 226
L 530 226
L 530 226
L 530 226
L 530 226
L 530 226
L 530 226
L 530 226
L 530 226
L 531 226
L 531 226
L 531 226
L 531 225
L 531 225
L 531 225
L 531 225
L 531 225
L 531 225
L 532 225
L 532 225
L 532 225
L 532 225
L 532 225
L 532 225
L 532 225
L 532 225
L 533 225
L 533 225
L 533 225
L 533 225
L 533 225
L 533 225
L 533 225
L 534 225
L 534 225
L 534 225
L 534 225
L 534 225
L 534 224
L 536 224
L 536 224
L 536 224
L 536 224
L 536 224
L 536 224
L 536 224
L 536 224
L 536 224
L 536 224
L 537 224
L 537 224
L 537 224
L 537 224
L 537 224
L 537 224
L 537 224
L 537 224
L 537 224
L 538 224
L 538 224
L 538 224
L 538 224
L 538 224
L 538 224
L 539 223
L 539 223
L 539 223
L 539 223
L 539 223
L 539 223
L 539 223
L 539 223
L 539 223
L 539 223
L 539 223
L 540 223
L 540 223
L 540 223
L 541 223
L 541 223
L 541 223
L 541 223
L 541 223
L 541 223
L 542 223
L 542 223
L 542 223
L 542 223
L 542 223
L 542 222
L 542 222
L 542 222
L 542 222
L 543 222
L 543 222
L 543 222
L 543 222
L 543 222
L 543 222
L 543 222
L 543 222
L 543 222
L 544 222
L 544 222
L 544 222
L 544 222
L 544 222
L 545 222
L 545 222
L 545 222
L 546 222
L 546 222
L 546 222
L 546 222
L 546 222
L 546 221
L 546 221
L 546 221
L 546 221
L 546 221
L 547 221
L 547 221
L 547 221
L 547 221
L 547 221
L 547 221
L 547 221
L 547 221
L 548 221
L 548 221
L 548 221
L 548 221
L 548 221
L 548 221
L 548 221
L 548 221
L 548 221
L 548 221
L 548 221
L 548 221
L 548 221
L 549 220
L 549 220
L 549 220
L 549 220
L 549 220
L 549 220
L 549 220
L 549 220
L 550 220
L 550 220
L 550 220
L 550 220
L 550 220
L 551 220
L 551 220
L 551 220
L 551 220
L 551 220
L 551 220
L 551 220
L 551 220
L 551 220
L 551 220
L 551 220
L 551 220
L 551 220
L 551 219
L 552 219
L 552 219
L 552 219
L 552 219
L 552 219
L 553 219
L 553 219
L 553 219
L 553 219
L 553 219
L 553 219
L 553 219
L 553 219
L 554 219
L 554 219
L 554 219
L 554 219
L 554 219
L 555 219
L 555 219
L 555 219
L 555 219
L 555 219
L 555 219
L 555 219
L 555 218
L 555 218
L 556 218
L 556 218
L 556 218
L 557 218
L 557 218
L 557 218
L 558 218
L 559 218
L 560 218
L 561 218
L 562 218
L 562 218
L 562 218
L 562 218
L 562 218
L 562 218
L 563 218
L 563 218
L 563 218
L 563 218
L 563 218
L 564 218
L 564 218
L 564 218
L 564 217
L 564 217
L 564 217
L 564 217
L 564 217
L 565 217
L 565 217
L 565 217
L 566 217
L 566 217
L 566 217
L 566 217
L 566 217
L 566 217
L 566 217
L 566 217
L 566 217
L 566 217
L 566 217
L 567 217
L 567 217
L 567 217
L 567 217
L 567 217
L 567 217
L 567 217
L 567 216
L 567 216
L 567 216
L 567 216
L 567 216
L 567 216
L 568 216
L 568 216
L 568 216
L 568 216
L 568 216
L 568 216
L 568 216
L 568 216
L 568 216
L 568 216
L 568 216
L 568 216
L 568 216
L 568 216
L 568 216
L 568 216
L 568 216
L 568 216
L 569 216
L 569 216
L 569 215
L 569 215
L 569 215
L 570 215
L 570 215
L 570 215
L 570 215
L 570 215
L 570 215
L 570 215
L 570 215
L 570 215
L 570 215
L 570 215
L 570 215
L 570 215
L 570 215
L 570 215
L 570 215
L 571 215
L 571 215
L 571 215
L 571 215
L 571 215
L 572 215
L 572 215
L 572 214
L 572 214
L 572 214
L 572 214
L 572 214
L 572 214
L 572 214
L 572 214
L 572 214
L 572 214
L 572 214
L 572 214
L 572 214
L 572 214
L 572 214
L 572 214
L 572 214
L 572 214
L 572 214
L 572 214
L 572 214
L 573 214
L 573 214
L 573 214
L 573 214
L 573 213
L 573 213
L 573 213
L 573 213
L 574 213
L 574 213
L 575 213
L 575 213
L 575 213
L 575 213
L 575 213
L 575 213
L 575 213
L 575 213
L 575 213
L 575 213
L 575 213
L 575 213
L 575 213
L 575 213
L 575 213
L 575 213
L 575 213
L 575 213
L 575 213
L 576 213
L 576 212
L 576 212
L 576 212
L 576 212
L 576 212
L 576 212
L 577 212
L 577 212
L 577 212
L 577 212
L 577 212
L 577 212
L 577 212
L 577 212
L 577 212
L 577 212
L 578 212
L 578 212
L 579 212
L 579 212
L 579 212
L 579 212
L 579 212
L 579 212
L 579 212
L 579 212
L 580 211
L 580 211
L 580 211
L 581 211
L 581 211
L 581 211
L 581 211
L 581 211
L 581 211
L 581 211
L 581 211
L 581 211
L 582 211
L 582 211
L 582 211
L 582 211
L 582 211
L 582 211
L 582 211
L 582 211
L 582 211
L 582 211
L 582 211
L 583 211
L 583 211
L 583 211
L 583 210
L 583 210
L 583 210
L 583 210
L 584 210
L 584 210
L 584 210
L 584 210
L 584 210
L 584 210
L 584 210
L 584 210
L 584 210
L 585 210
L 585 210
L 585 210
L 585 210
L 585 210
L 585 210
L 585 210
L 585 210
L 585 210
L 585 210
L 585 210
L 585 210
L 585 210
L 585 209
L 585 209
L 585 209
L 586 209
L 586 209
L 586 209
L 586 209
L 586 209
L 586 209
L 586 209
L 586 209
L 586 209
L 586 209
L 586 209
L 587 209
L 587 209
L 587 209
L 587 209
L 587 209
L 587 209
L 587 209
L 588 209
L 588 209
L 588 209
L 588 209
L 588 209
L 588 208
L 588 208
L 588 208
L 588 208
L 589 208
L 589 208
L 589 208
L 589 208
L 589 208
L 589 208
L 590 208
L 590 208
L 590 208
L 590 208
L 590 208
L 590 208
L 591 208
L 592 208
L 592 208
L 592 208
L 592 208
L 592 208
L 592 208
L 592 208
L 592 208
L 593 208
L 593 207
L 593 207
L 593 207
L 594 207
L 594 207
L 594 207
L 594 207
L 594 207
L 594 207
L 594 207
L 594 207
L 594 207
L 594 207
L 594 207
L 594 207
L 594 207
L 594 207
L 595 207
L 595 207
L 595 207
L 595 207
L 595 207
L 595 207
L 595 207
L 595 207
L 595 207
L 596 206
L 596 206
L 596 206
L 596 206
L 596 206
L 596 206
L 596 206
L 596 206
L 596 206
L 597 206
L 597 206
L 597 206
L 597 206
L 597 206
L 597 206
L 597 206
L 597 206
L 598 206
L 598 206
L 598 206
L 598 206
L 598 206
L 598 206
L 598 206
L 599 206
L 599 205
L 599 205
L 599 205
L 599 205
L 599 205
L 599 205
L 599 205
L 599 205
L 600 205
L 600 205
L 600 205
L 600 205
L 600 205
L 600 205
L 600 205
L 600 205
L 600 205
L 600 205
L 601 205
L 601 205
L 601 205
L 601 205
L 601 205
L 601 205
L 601 205
L 601 205
L 601 204
L 601 204
L 601 204
L 602 204
L 602 204
L 602 204
L 602 204
L 602 204
L 602 204
L 602 204
L 603 204
L 603 204
L 603 204
L 603 204
L 603 204
L 603 204
L 603 204
L 603 204
L 603 204
L 603 204
L 603 204
L 603 204
L 603 204
L 603 204
L 603 204
L 603 204
L 604 203
L 604 203
L 604 203
L 604 203
L 604 203
L 604 203
L 604 203
L 604 203
L 604 203
L 605 203
L 605 203
L 605 203
L 605 203
L 605 203
L 605 203
L 605 203
L 605 203
L 605 203
L 605 203
L 605 203
L 605 203
L 605 203
L 606 203
L 606 203
L 606 203
L 606 203
L 606 202
L 606 202
L 606 202
L 606 202
L 607 202
L 607 202
L 607 202
L 607 202
L 607 202
L 607 202
L 607 202
L 607 202
L 607 202
L 607 202
L 607 202
L 608 202
L 608 202
L 609 202
L 609 202
L 609 202
L 609 202
L 609 202
L 609 202
L 609 202
L 609 202
L 609 202
L 609 201
L 609 201
L 609 201
L 609 201
L 609 201
L 609 201
L 609 201
L 609 201
L 609 201
L 609 201
L 609 201
L 609 201
L 609 201
L 609 201
L 609 201
L 609 201
L 609 201
L 609 201
L 609 201
L 609 201
L 610 201
L 610 201
L 610 201
L 610 201
L 610 201
L 610 201
L 610 200
L 610 200
L 610 200
L 610 200
L 610 200
L 610 200
L 610 200
L 610 200
L 610 200
L 610 200
L 610 200
L 610 200
L 610 200
L 610 200
L 610 200
L 610 200
L 610 200
L 610 200
L 610 200
L 610 200
L 610 200
L 610 200
L 610 200
L 611 200
L 611 200
L 611 200
L 611 199
L 611 199
L 611 199
L 611 199
L 611 199
L 611 199
L 611 199
L 611 199
L 611 199
L 611 199
L 611 199
L 611 199
L 611 199
L 611 199
L 611 199
L 611 199
L 611 199
L 611 199
L 611 199
L 611 199
L 611 199
L 611 199
L 611 199
L 611 199
L 611 199
L 611 199
L 611 198
L 612 198
L 612 198
L 612 198
L 612 198
L 612 198
L 612 198
L 612 198
L 612 198
L 612 198
L 612 198
L 612 198
L 612 198
L 612 198
L 612 198
L 612 198
L 612 198
L 612 198
L 612 198
L 613 198
L 613 198
L 613 198
L 613 198
L 613 198
L 613 198
L 613 198
L 613 197
L 613 197
L 613 197
L 613 197
L 613 197
L 613 197
L 613 197
L 613 197
L 613 197
L 613 197
L 613 197
L 613 197
L 613 197
L 613 197
L 613 197
L 613 197
L 613 197
L 613 197
L 613 197
L 613 197
L 613 197
L 613 197
L 613 197
L 613 197
L 613 197
L 613 196
L 614 196
L 614 196
L 614 196
L 614 196
L 614 196
L 614 196
L 614 196
L 614 196
L 614 196
L 614 196
L 614 196
L 614 196
L 614 196
L 614 196
L 614 196
L 614 196
L 614 196
L 614 196
L 614 196
L 614 196
L 614 196
L 614 196
L 614 196
L 614 196
L 614 196
L 614 195
L 614 195
L 614 195
L 614 195
L 614 195
L 614 195
L 615 195
L 615 195
L 615 195
L 615 195
L 615 195
L 615 195
L 615 195
L 615 195
L 615 195
L 615 195
L 615 195
L 615 195
L 615 195
L 615 195
L 615 195
L 615 195
L 615 195
L 615 195
L 615 195
L 615 195
L 615 194
L 615 194
L 615 194
L 615 194
L 615 194
L 615 194
L 615 194
L 615 194
L 615 194
L 615 194
L 615 194
L 615 194
L 615 194
L 615 194
L 615 194
L 615 194
L 615 194
L 616 194
L 616 194
L 616 194
L 616 194
L 616 194
L 616 194
L 616 194
L 616 194
L 616 194
L 616 193
L 616 193
L 616 193
L 616 193
L 616 193
L 616 193
L 617 193
L 617 193
L 617 193
L 617 193
L 617 193
L 617 193
L 617 193
L 617 193
L 617 193
L 617 193
L 617 193
L 618 193
L 618 193
L 618 193
L 618 193
L 618 193
L 618 193
L 618 193
L 618 193
L 618 193
L 618 192
L 618 192
L 618 192
L 618 192
L 618 192
L 618 192
L 618 192
L 618 192
L 618 192
L 618 192
L 618 192
L 618 192
L 618 192
L 618 192
L 618 192
L 618 192
L 618 192
L 618 192
L 618 192
L 618 192
L 618 192
L 618 192
L 619 192
L 619 192
L 619 192
L 619 192
L 619 191
L 619 191
L 619 191
L 619 191
L 619 191
L 619 191
L 619 191
L 619 191
L 619 191
L 619 191
L 620 191
L 620 191
L 620 191
L 620 191
L 620 191
L 620 191
L 620 191
L 620 191
L 620 191
L 620 191
L 620 191
L 620 191
L 620 191
L 620 191
L 620 191
L 620 191
L 620 190
L 620 190
L 620 190
L 620 190
L 620 190
L 620 190
L 620 190
L 620 190
L 620 190
L 620 190
L 621 190
L 621 190
L 621 190
L 621 190
L 621 190
L 621 190
L 621 190
L 621 190
L 622 190
L 622 190
L 622 190
L 622 190
L 622 190
L 622 190
L 622 190
L 622 190
L 622 189
L 622 189
L 622 189
L 622 189
L 622 189
L 622 189
L 622 189
L 623 189
L 623 189
L 623 189
L 623 189
L 623 189
L 623 189
L 623 189
L 623 189
L 623 189
L 623 189
L 623 189
L 623 189
L 623 189
L 623 189
L 623 189
L 623 189
L 623 189
L 623 189
L 623 188
L 623 188
L 623 188
L 623 188
L 623 188
L 623 188
L 623 188
L 623 188
L 623 188
L 624 188
L 624 188
L 624 188
L 624 188
L 624 188
L 624 188
L 624 188
L 624 188
L 624 188
L 624 188
L 624 188
L 624 188
L 624 188
L 624 188
L 624 188
L 624 188
L 624 188
L 624 187
L 624 187
L 624 187
L 624 187
L 624 187
L 624 187
L 624 187
L 624 187
L 624 187
L 624 187
L 624 187
L 624 187
L 624 187
L 624 187
L 624 187
L 624 187
L 624 187
L 624 187
L 624 187
L 624 187
L 624 187
L 624 187
L 624 187
L 624 187
L 624 187
L 624 187
L 624 186
L 624 186
L 624 186
L 624 186
L 624 186
L 624 186
L 624 186
L 624 186
L 624 186
L 624 186
L 624 186
L 624 186
L 624 186
L 625 186
L 625 186
L 625 186
L 625 186
L 625 186
L 625 186
L 625 186
L 625 186
L 625 186
L 625 186
L 625 186
L 625 186
L 625 186
L 625 185
L 625 185
L 625 185
L 625 185
L 625 185
L 625 185
L 625 185
L 625 185
L 625 185
L 625 185
L 625 185
L 625 185
L 625 185
L 625 185
L 625 185
L 625 185
L 625 185
L 625 185
L 625 185
L 625 185
L 626 185
L 626 185
L 626 185
L 626 185
L 626 185
L 626 185
L 627 184
L 627 184
L 627 184
L 627 184
L 627 184
L 627 184
L 627 184
L 627 184
L 627 184
L 627 184
L 627 184
L 627 184
L 627 184
L 627 184
L 628 184
L 628 184
L 628 184
L 628 184
L 628 184
L 628 184
L 628 184
L 628 184
L 628 184
L 628 184
L 628 184
L 628 184
L 628 183
L 628 183
L 628 183
L 628 183
L 628 183
L 628 183
L 628 183
L 629 183
L 629 183
L 629 183
L 629 183
L 629 183
L 629 183
L 629 183
L 629 183
L 629 183
L 629 183
L 629 183
L 629 183
L 629 183
L 629 183
L 629 183
L 629 183
L 629 183
L 629 183
L 629 183
L 630 182
L 630 182
L 630 182
L 630 182
L 630 182
L 630 182
L 630 182
L 630 182
L 630 182
L 630 182
L 630 182
L 630 182
L 631 182
L 631 182
L 631 182
L 631 182
L 631 182
L 632 182
L 632 182
L 632 182
L 632 182
L 632 182
L 632 182
L 632 182
L 632 182
L 632 182
L 632 181
L 632 181
L 632 181
L 633 181
L 633 181
L 633 181
L 633 181
L 633 181
L 633 181
L 633 181
L 633 181
L 633 181
L 633 181
L 633 181
L 633 181
L 633 181
L 633 181
L 633 181
L 633 181
L 633 181
L 633 181
L 633 181
L 633 181
L 633 181
L 633 181
L 634 181
L 634 180
L 634 180
L 634 180
L 634 180
L 634 180
L 634 180
L 634 180
L 634 180
L 635 180
L 635 180
L 635 180
L 635 180
L 635 180
L 635 180
L 635 180
L 635 180
L 635 180
L 635 180
L 635 180
L 636 180
L 636 180
L 636 180
L 637 180
L 637 180
L 637 180
L 637 179
L 637 179
L 637 179
L 637 179
L 637 179
L 637 179
L 637 179
L 637 179
L 638 179
L 638 179
L 638 179
L 638 179
L 638 179
L 638 179
L 638 179
L 638 179
L 638 179
L 638 179
L 639 179
L 639 179
L 639 179
L 639 179
L 639 179
L 639 179
L 639 179
L 639 179
L 639 178
L 639 178
L 639 178
L 639 178
L 639 178
L 640 178
L 640 178
L 640 178
L 640 178
L 640 178
L 641 178
L 642 178
L 642 178
L 642 178
L 642 178
L 642 178
L 642 178
L 642 178
L 642 178
L 643 178
L 643 178
L 643 178
L 643 178
L 643 178
L 643 178
L 643 178
L 643 177
L 643 177
L 643 177
L 643 177
L 643 177
L 643 177
L 643 177
L 644 177
L 644 177
L 644 177
L 644 177
L 644 177
L 644 177
L 644 177
L 644 177
L 644 177
L 644 177
L 644 177
L 644 177
L 645 177
L 645 177
L 645 177
L 645 177
L 645 177
L 645 177
L 645 177
L 645 176
L 645 176
L 646 176
L 646 176
L 646 176
L 646 176
L 646 176
L 646 176
L 646 176
L 646 176
L 646 176
L 647 176
L 647 176
L 647 176
L 647 176
L 647 176
L 647 176
L 647 176
L 647 176
L 647 176
L 647 176
L 647 176
L 647 176
L 648 176
L 648 176
L 648 176
L 648 175
L 648 175
L 648 175
L 648 175
L 648 175
L 648 175
L 648 175
L 648 175
L 648 175
L 648 175
L 648 175
L 648 175
L 649 175
L 649 175
L 649 175
L 649 175
L 649 175
L 649 175
L 649 175
L 649 175
L 649 175
L 649 175
L 649 175
L 649 175
L 650 175
L 650 175
L 650 174
L 650 174
L 650 174
L 650 174
L 651 174
L 651 174
L 651 174
L 651 174
L 651 174
L 651 174
L 651 174
L 651 174
L 651 174
L 651 174
L 651 174
L 652 174
L 652 174
L 652 174
L 652 174
L 653 174
L 653 174
L 653 174
L 653 174
L 653 174
L 653 174
L 653 174
L 653 173
L 653 173
L 653 173
L 653 173
L 653 173
L 653 173
L 653 173
L 653 173
L 654 173
L 654 173
L 654 173
L 654 173
L 654 173
L 655 173
L 655 173
L 655 173
L 655 173
L 655 173
L 656 173
L 656 173
L 656 173
L 656 173
L 656 173
L 656 173
L 656 173
L 657 173
L 657 172
L 657 172
L 657 172
L 657 172
L 657 172
L 657 172
L 657 172
L 657 172
L 657 172
L 657 172
L 657 172
L 657 172
L 657 172
L 657 172
L 658 172
L 658 172
L 658 172
L 658 172
L 659 172
L 659 172
L 659 172
L 659 172
L 659 172
L 660 172
L 660 172
L 660 171
L 661 171
L 661 171
L 661 171
L 661 171
L 661 171
L 661 171
L 661 171
L 661 171
L 661 171
L 661 171
L 661 171
L 661 171
L 661 171
L 661 171
L 661 171
L 661 171
L 661 171
L 662 171
L 662 171
L 662 171
L 662 171
L 662 171
L 662 171
L 662 171
L 662 171
L 662 170
L 662 170
L 662 170
L 662 170
L 663 170
L 663 170
L 663 170
L 663 170
L 663 170
L 663 170
L 663 170
L 663 170
L 663 170
L 663 170
L 663 170
L 663 170
L 663 170
L 664 170
L 664 170
L 664 170
L 664 170
L 664 170
L 664 170
L 665 170
L 666 170
L 666 170
L 666 169
L 666 169
L 666 169
L 666 169
L 666 169
L 666 169
L 666 169
L 666 169
L 666 169
L 666 169
L 666 169
L 667 169
L 667 169
L 667 169
L 667 169
L 667 169
L 667 169
L 667 169
L 667 169
L 667 169
L 667 169
L 667 169
L 667 169
L 668 169
L 668 169
L 668 169
L 668 168
L 668 168
L 668 168
L 668 168
L 668 168
L 668 168
L 668 168
L 668 168
L 668 168
L 668 168
L 668 168
L 669 168
L 669 168
L 669 168
L 669 168
L 670 168
L 670 168
L 670 168
L 670 168
L 670 168
L 670 168
L 670 168
L 671 168
L 671 168
L 671 168
L 671 168
L 671 167
L 671 167
L 671 167
L 672 167
L 672 167
L 672 167
L 672 167
L 672 167
L 672 167
L 672 167
L 672 167
L 672 167
L 672 167
L 672 167
L 672 167
L 672 167
L 672 167
L 672 167
L 672 167
L 672 167
L 672 167
L 673 167
L 673 167
L 673 167
L 673 167
L 673 167
L 673 166
L 673 166
L 673 166
L 673 166
L 673 166
L 673 166
L 673 166
L 673 166
L 673 166
L 673 166
L 674 166
L 674 166
L 674 166
L 674 166
L 674 166
L 675 166
L 675 166
L 675 166
L 675 166
L 675 166
L 675 166
L 675 166
L 675 166
L 675 166
L 675 166
L 675 166
L 676 165
L 676 165
L 676 165
L 676 165
L 676 165
L 676 165
L 676 165
L 676 165
L 676 165
L 676 165
L 676 165
L 676 165
L 676 165
L 676 165
L 676 165
L 676 165
L 676 165
L 677 165
L 677 165
L 677 165
L 677 165
L 677 165
L 677 165
L 677 165
L 677 165
L 677 165
L 677 164
L 677 164
L 677 164
L 677 164
L 677 164
L 677 164
L 677 164
L 677 164
L 677 164
L 678 164
L 678 164
L 678 164
L 678 164
L 678 164
L 678 164
L 678 164
L 678 164
L 678 164
L 678 164
L 678 164
L 679 164
L 679 164
L 679 164
L 679 164
L 679 164
L 680 163
L 680 163
L 680 163
L 680 163
L 680 163
L 680 163
L 680 163
L 680 163
L 681 163
L 681 163
L 681 163
L 681 163
L 681 163
L 681 163
L 681 163
L 681 163
L 681 163
L 681 163
L 681 163
L 681 163
L 681 163
L 682 163
L 682 163
L 682 163
L 682 163
L 682 163
L 682 162
L 682 162
L 682 162
L 682 162
L 682 162
L 682 162
L 682 162
L 682 162
L 682 162
L 683 162
L 683 162
L 683 162
L 683 162
L 683 162
L 683 162
L 683 162
L 683 162
L 683 162
L 684 162
L 684 162
L 685 162
L 685 162
L 685 162
L 685 162
L 685 162
L 685 162
L 685 161
L 685 161
L 685 161
L 686 161
L 686 161
L 686 161
L 686 161
L 686 161
L 686 161
L 686 161
L 686 161
L 686 161
L 686 161
L 686 161
L 687 161
L 687 161
L 687 161
L 687 161
L 687 161
L 687 161
L 687 161
L 687 161
L 687 161
L 687 161
L 687 161
L 687 161
L 687 160
L 687 160
L 688 160
L 688 160
L 688 160
L 689 160
L 689 160
L 689 160
L 689 160
L 689 160
L 689 160
L 689 160
L 689 160
L 689 160
L 689 160
L 690 160
L 690 160
L 690 160
L 690 160
L 690 160
L 690 160
L 690 160
L 690 160
L 690 160
L 690 160
L 690 160
L 690 159
L 691 159
L 691 159
L 691 159
L 691 159
L 691 159
L 691 159
L 691 159
L 691 159
L 691 159
L 691 159
L 691 159
L 691 159
L 691 159
L 691 159
L 691 159
L 691 159
L 692 159
L 692 159
L 692 159
L 692 159
L 692 159
L 692 159
L 692 159
L 692 159
L 692 159
L 693 158
L 693 158
L 693 158
L 694 158
L 694 158
L 694 158
L 694 158
L 694 158
L 694 158
L 694 158
L 694 158
L 694 158
L 694 158
L 694 158
L 694 158
L 695 158
L 695 158
L 695 158
L 695 158
L 695 158
L 695 158
L 695 158
L 695 158
L 695 158
L 695 158
L 695 158
L 695 157
L 695 157
L 695 157
L 695 157
L 695 157
L 695 157
L 695 157
L 696 157
L 696 157
L 696 157
L 696 157
L 696 157
L 696 157
L 696 157
L 696 157
L 696 157
L 696 157
L 696 157
L 696 157
L 696 157
L 696 157
L 696 157
L 696 157
L 696 157
L 696 157
L 696 157
L 696 156
L 696 156
L 696 156
L 697 156
L 697 156
L 697 156
L 697 156
L 697 156
L 697 156
L 697 156
L 697 156
L 697 156
L 698 156
L 698 156
L 698 156
L 699 156
L 699 156
L 699 156
L 699 156
L 699 156
L 699 156
L 699 156
L 699 156
L 700 156
L 700 156
L 700 156
L 700 155
L 700 155
L 700 155
L 700 155
L 700 155
L 700 155
L 700 155
L 700 155
L 700 155
L 700 155
L 701 155
L 701 155
L 701 155
L 701 155
L 701 155
L 701 155
L 702 155
L 702 155
L 702 155
L 702 155
L 702 155
L 702 155
L 702 155
L 703 155
L 703 155
L 703 154
L 703 154
L 703 154
L 704 154
L 704 154
L 704 154
L 704 154
L 704 154
L 704 154
L 704 154
L 704 154
L 704 154
L 704 154
L 704 154
L 704 154
L 704 154
L 705 154
L 705 154
L 705 154
L 705 154
L 705 154
L 705 154
L 705 154
L 705 154
L 705 154
L 705 154
L 705 153
L 705 153
L 706 153
L 706 153
L 706 153
L 706 153
L 706 153
L 706 153
L 706 153
L 706 153
L 706 153
L 707 153
L 707 153
L 707 153
L 707 153
L 708 153
L 708 153
L 708 153
L 708 153
L 708 153
L 708 153
L 709 153
L 709 153
L 709 153
L 709 153
L 709 153
L 709 152
L 709 152
L 709 152
L 709 152
L 709 152
L 709 152
L 709 152
L 709 152
L 709 152
L 709 152
L 709 152
L 709 152
L 709 152
L 710 152
L 710 152
L 710 152
L 710 152
L 710 152
L 710 152
L 710 152
L 710 152
L 710 152
L 710 152
L 710 152
L 711 152
L 711 152
L 711 151
L 711 151
L 711 151
L 711 151
L 711 151
L 711 151
L 711 151
L 711 151
L 712 151
L 712 151
L 712 151
L 712 151
L 712 151
L 712 151
L 713 151
L 713 151
L 713 151
L 713 151
L 713 151
L 713 151
L 713 151
L 713 151
L 713 151
L 714 151
L 714 151
L 715 151
L 715 150
L 715 150
L 716 150
L 716 150
L 716 150
L 716 150
L 717 150
L 717 150
L 718 150
L 718 150
L 718 150
L 718 150
L 718 150
L 718 150
L 718 150
L 718 150
L 718 150
L 718 150
L 718 150
L 719 150
L 719 150
L 719 150
L 719 150
L 719 150
L 719 150
L 719 150
L 719 149
L 719 149
L 719 149
L 719 149
L 719 149
L 719 149
L 719 149
L 719 149
L 719 149
L 719 149
L 719 149
L 719 149
L 719 149
L 719 149
L 719 149
L 720 149
L 720 149
L 720 149
L 720 149
L 720 149
L 720 149
L 720 149
L 720 149
L 720 149
L 720 149
L 720 149
L 720 148
L 720 148
L 720 148
L 720 148
L 720 148
L 720 148
L 720 148
L 720 148
L 721 148
L 721 148
L 721 148
L 721 148
L 721 148
L 721 148
L 721 148
L 721 148
L 721 148
L 721 148
L 721 148
L 722 148
L 722 148
L 722 148
L 722 148
L 722 148
L 722 148
L 722 148
L 723 147
L 723 147
L 723 147
L 723 147
L 723 147
L 723 147
L 723 147
L 723 147
L 724 147
L 724 147
L 724 147
L 724 147
L 724 147
L 724 147
L 724 147
L 724 147
L 724 147
L 724 147
L 724 147
L 724 147
L 724 147
L 725 147
L 725 147
L 725 147
L 725 147
L 725 147
L 726 146
L 726 146
L 726 146
L 726 146
L 726 146
L 726 146
L 726 146
L 727 146
L 727 146
L 727 146
L 727 146
L 727 146
L 728 146
L 728 146
L 728 146
L 728 146
L 728 146
L 728 146
L 728 146
L 728 146
L 728 146
L 728 146
L 728 146
L 728 146
L 728 146
L 729 145
L 729 145
L 729 145
L 729 145
L 729 145
L 729 145
L 729 145
L 729 145
L 729 145
L 729 145
L 729 145
L 729 145
L 729 145
L 729 145
L 729 145
L 729 145
L 729 145
L 729 145
L 729 145
L 729 145
L 729 145
L 730 145
L 730 145
L 730 145
L 730 145
L 730 145
L 730 144
L 730 144
L 730 144
L 730 144
L 730 144
L 730 144
L 730 144
L 730 144
L 730 144
L 730 144
L 730 144
L 730 144
L 730 144
L 730 144
L 730 144
L 730 144
L 730 144
L 730 144
L 730 144
L 730 144
L 730 144
L 730 144
L 730 144
L 730 144
L 730 144
L 730 144
L 731 143
L 731 143
L 731 143
L 731 143
L 731 143
L 731 143
L 731 143
L 731 143
L 731 143
L 731 143
L 731 143
L 731 143
L 731 143
L 732 143
L 732 143
L 732 143
L 732 143
L 732 143
L 732 143
L 732 143
L 732 143
L 732 143
L 732 143
L 732 143
L 732 143
L 733 143
L 733 142
L 733 142
L 733 142
L 733 142
L 733 142
L 733 142
L 733 142
L 733 142
L 733 142
L 733 142
L 733 142
L 733 142
L 733 142
L 733 142
L 733 142
L 733 142
L 733 142
L 733 142
L 734 142
L 734 142
L 734 142
L 734 142
L 734 142
L 734 142
L 734 142
L 734 142
L 734 141
L 734 141
L 734 141
L 735 141
L 735 141
L 735 141
L 735 141
L 735 141
L 735 141
L 735 141
L 735 141
L 735 141
L 735 141
L 735 141
L 735 141
L 735 141
L 735 141
L 735 141
L 735 141
L 735 141
L 735 141
L 735 141
L 735 141
L 735 141
L 736 141
L 737 141
L 737 140
L 737 140
L 737 140
L 737 140
L 737 140
L 737 140
L 737 140
L 737 140
L 738 140
L 738 140
L 738 140
L 738 140
L 738 140
L 738 140
L 738 140
L 738 140
L 738 140
L 738 140
L 738 140
L 738 140
L 739 140
L 739 140
L 739 140
L 739 140
L 739 140
L 739 140
L 739 139
L 739 139
L 739 139
L 739 139
L 739 139
L 739 139
L 739 139
L 739 139
L 739 139
L 739 139
L 739 139
L 739 139
L 739 139
L 739 139
L 739 139
L 739 139
L 739 139
L 739 139
L 740 139
L 740 139
L 740 139
L 740 139
L 740 139
L 740 139
L 740 139
L 740 139
L 740 138
L 741 138
L 741 138
L 741 138
L 741 138
L 741 138
L 741 138
L 741 138
L 741 138
L 741 138
L 741 138
L 741 138
L 741 138
L 741 138
L 741 138
L 741 138
L 741 138
L 741 138
L 741 138
L 741 138
L 741 138
L 741 138
L 741 138
L 741 138
L 741 138
L 741 137
L 741 137
L 741 137
L 741 137
L 741 137
L 741 137
L 741 137
L 741 137
L 741 137
L 741 137
L 741 137
L 741 137
L 742 137
L 742 137
L 742 137
L 742 137
L 742 137
L 742 137
L 742 137
L 742 137
L 742 137
L 742 137
L 742 137
L 742 137
L 742 137
L 742 137
L 742 136
L 742 136
L 742 136
L 742 136
L 742 136
L 742 136
L 742 136
L 742 136
L 742 136
L 742 136
L 742 136
L 742 136
L 742 136
L 742 136
L 742 136
L 742 136
L 742 136
L 742 136
L 742 136
L 742 136
L 742 136
L 742 136
L 742 136
L 742 136
L 742 136
L 742 136
L 743 135
L 743 135
L 743 135
L 743 135
L 743 135
L 743 135
L 743 135
L 743 135
L 743 135
L 743 135
L 743 135
L 743 135
L 743 135
L 743 135
L 743 135
L 743 135
L 743 135
L 743 135
L 743 135
L 743 135
L 743 135
L 743 135
L 743 135
L 743 135
L 743 135
L 743 135
L 743 134
L 743 134
L 743 134
L 743 134
L 743 134
L 743 134
L 743 134
L 743 134
L 743 134
L 743 134
L 743 134
L 743 134
L 743 134
L 743 134
L 743 134
L 743 134
L 743 134
L 743 134
L 743 134
L 743 134
L 743 134
L 743 134
L 743 134
L 743 134
L 743 134
L 743 134
L 743 133
L 743 133
L 743 133
L 743 133
L 743 133
L 743 133
L 743 133
L 743 133
L 743 133
L 743 133
L 743 133
L 743 133
L 744 133
L 744 133
L 744 133
L 744 133
L 744 133
L 744 133
L 744 133
L 744 133
L 744 133
L 744 133
L 744 133
L 744 133
L 744 133
L 744 133
L 744 132
L 744 132
L 744 132
L 744 132
L 744 132
L 744 132
L 744 132
L 744 132
L 744 132
L 744 132
L 744 132
L 744 132
L 745 132
L 745 132
L 745 132
L 745 132
L 745 132
L 745 132
L 745 132
L 745 132
L 745 132
L 745 132
L 745 132
L 745 132
L 745 132
L 745 132
L 746 131
L 746 131
L 746 131
L 746 131
L 746 131
L 746 131
L 746 131
L 746 131
L 746 131
L 746 131
L 746 131
L 746 131
L 746 131
L 746 131
L 747 131
L 747 131
L 747 131
L 747 131
L 747 131
L 747 131
L 747 131
L 747 131
L 747 131
L 747 131
L 747 131
L 747 131
L 747 130
L 747 130
L 747 130
L 747 130
L 747 130
L 747 130
L 747 130
L 747 130
L 747 130
L 747 130
L 747 130
L 747 130
L 747 130
L 747 130
L 747 130
L 747 130
L 747 130
L 747 130
L 747 130
L 747 130
L 747 130
L 747 130
L 747 130
L 747 130
L 747 130
L 747 130
L 747 129
L 747 129
L 747 129
L 747 129
L 747 129
L 747 129
L 747 129
L 748 129
L 748 129
L 748 129
L 748 129
L 748 129
L 748 129
L 748 129
L 748 129
L 748 129
L 748 129
L 748 129
L 748 129
L 748 129
L 748 129
L 748 129
L 748 129
L 748 129
L 748 129
L 748 128
L 748 128
L 748 128
L 748 128
L 748 128
L 748 128
L 748 128
L 748 128
L 749 128
L 749 128
L 749 128
L 749 128
L 749 128
L 749 128
L 749 128
L 749 128
L 749 128
L 749 128
L 749 128
L 749 128
L 749 128
L 749 128
L 749 128
L 749 128
L 749 128
L 749 128
L 749 127
L 750 127
L 750 127
L 750 127
L 750 127
L 750 127
L 750 127
L 750 127
L 750 127
L 750 127
L 750 127
L 750 127
L 750 127
L 750 127
L 750 127
L 750 127
L 750 127
L 750 127
L 750 127
L 750 127
L 751 127
L 751 127
L 751 127
L 751 127
L 751 127
L 751 127
L 752 126
L 752 126
L 752 126
L 752 126
L 752 126
L 752 126
L 752 126
L 752 126
L 752 126
L 752 126
L 752 126
L 752 126
L 752 126
L 752 126
L 752 126
L 752 126
L 752 126
L 752 126
L 752 126
L 752 126
L 752 126
L 752 126
L 752 126
L 752 126
L 752 126
L 753 126
L 753 125
L 753 125
L 753 125
L 753 125
L 753 125
L 753 125
L 753 125
L 753 125
L 753 125
L 753 125
L 753 125
L 753 125
L 753 125
L 753 125
L 753 125
L 753 125
L 753 125
L 753 125
L 753 125
L 753 125
L 753 125
L 753 125
L 753 125
L 753 125
L 754 125
L 754 125
L 754 124
L 754 124
L 754 124
L 754 124
L 754 124
L 754 124
L 754 124
L 754 124
L 754 124
L 754 124
L 754 124
L 754 124
L 754 124
L 754 124
L 754 124
L 754 124
L 755 124
L 755 124
L 755 124
L 755 124
L 755 124
L 755 124
L 755 124
L 755 124
L 756 124
L 756 124
L 756 123
L 756 123
L 756 123
L 756 123
L 756 123
L 756 123
L 756 123
L 756 123
L 757 123
L 757 123
L 757 123
L 757 123
L 757 123
L 757 123
L 757 123
L 757 123
L 757 123
L 758 123
L 758 123
L 758 123
L 758 123
L 758 123
L 758 123
L 758 123
L 758 123
L 758 123
L 758 122
L 758 122
L 758 122
L 758 122
L 758 122
L 758 122
L 758 122
L 758 122
L 758 122
L 759 122
L 759 122
L 759 122
L 759 122
L 759 122
L 759 122
L 759 122
L 759 122
L 759 122
L 759 122
L 759 122
L 759 122
L 759 122
L 759 122
L 759 122
L 759 122
L 759 122
L 759 121
L 759 121
L 759 121
L 759 121
L 760 121
L 760 121
L 760 121
L 760 121
L 760 121
L 760 121
L 761 121
L 761 121
L 761 121
L 761 121
L 761 121
L 761 121
L 761 121
L 761 121
L 761 121
L 761 121
L 761 121
L 761 121
L 761 121
L 761 121
L 761 121
L 761 120
L 761 120
L 762 120
L 762 120
L 762 120
L 762 120
L 762 120
L 762 120
L 762 120
L 762 120
L 762 120
L 762 120
L 762 120
L 762 120
L 762 120
L 762 120
L 762 120
L 762 120
L 762 120
L 763 120
L 763 120
L 763 120
L 763 120
L 763 120
L 763 120
L 763 120
L 763 119
L 763 119
L 763 119
L 763 119
L 763 119
L 763 119
L 763 119
L 763 119
L 763 119
L 763 119
L 763 119
L 763 119
L 763 119
L 763 119
L 763 119
L 763 119
L 763 119
L 763 119
L 764 119
L 764 119
L 764 119
L 764 119
L 764 119
L 764 119
L 764 119
L 764 119
L 764 118
L 764 118
L 764 118
L 764 118
L 765 118
L 765 118
L 765 118
L 765 118
L 766 118
L 766 118
L 766 118
L 766 118
L 766 118
L 766 118
L 766 118
L 766 118
L 766 118
L 766 118
L 766 118
L 766 118
L 766 118
L 766 118
L 767 118
L 767 118
L 767 118
L 767 118
L 767 117
L 767 117
L 767 117
L 767 117
L 767 117
L 767 117
L 767 117
L 767 117
L 767 117
L 767 117
L 767 117
L 767 117
L 767 117
L 767 117
L 767 117
L 767 117
L 767 117
L 767 117
L 767 117
L 767 117
L 767 117
L 767 117
L 767 117
L 767 117
L 767 117
L 768 117
L 768 116
L 768 116
L 768 116
L 768 116
L 768 116
L 768 116
L 768 116
L 768 116
L 768 116
L 768 116
L 768 116
L 769 116
L 769 116
L 769 116
L 769 116
L 769 116
L 769 116
L 769 116
L 769 116
L 769 116
L 769 116
L 769 116
L 770 116
L 770 116
L 770 116
L 770 116
L 771 115
L 771 115
L 771 115
L 771 115
L 771 115
L 771 115
L 771 115
L 771 115
L 771 115
L 771 115
L 771 115
L 771 115
L 771 115
L 771 115
L 772 115
L 772 115
L 772 115
L 772 115
L 772 115
L 772 115
L 772 115
L 772 115
L 772 115
L 772 115
L 772 115
L 772 115
L 772 114
L 773 114
L 773 114
L 773 114
L 773 114
L 773 114
L 773 114
L 773 114
L 773 114
L 773 114
L 774 114
L 774 114
L 774 114
L 774 114
L 774 114
L 774 114
L 774 114
L 774 114
L 774 114
L 774 114
L 774 114
L 774 114
L 774 114
L 774 114
L 774 114
L 774 114
L 774 113
L 774 113
L 774 113
L 774 113
L 774 113
L 774 113
L 774 113
L 774 113
L 774 113
L 774 113
L 774 113
L 774 113
L 774 113
L 774 113
L 774 113
L 774 113
L 774 113
L 774 113
L 775 113
L 775 113
L 776 113
L 776 113
L 776 113
L 776 113
L 777 113
L 777 113
L 777 112
L 777 112
L 777 112
L 777 112
L 777 112
L 777 112
L 777 112
L 778 112
L 778 112
L 778 112
L 778 112
L 778 112
L 778 112
L 778 112
L 778 112
L 778 112
L 778 112
L 778 112
L 778 112
L 778 112
L 778 112
L 778 112
L 778 112
L 778 112
L 778 112
L 778 111
L 778 111
L 778 111
L 778 111
L 778 111
L 778 111
L 778 111
L 778 111
L 778 111
L 779 111
L 779 111
L 779 111
L 780 111
L 780 111
L 780 111
L 780 111
L 780 111
L 780 111
L 780 111
L 780 111
L 780 111
L 780 111
L 780 111
L 780 111
L 781 111
L 781 111
L 781 110
L 781 110
L 781 110
L 781 110
L 781 110
L 781 110
L 781 110
L 781 110
L 781 110
L 781 110
L 781 110
L 781 110
L 781 110
L 781 110
L 781 110
L 781 110
L 781 110
L 781 110
L 781 110
L 781 110
L 781 110
L 781 110
L 781 110
L 781 110
L 782 110
L 782 110
L 782 109
L 782 109
L 782 109
L 782 109
L 782 109
L 782 109
L 782 109
L 782 109
L 782 109
L 782 109
L 782 109
L 782 109
L 782 109
L 782 109
L 782 109
L 782 109
L 782 109
L 782 109
L 783 109
L 783 109
L 783 109
L 783 109
L 783 109
L 783 109
L 783 109
L 783 109
L 783 108
L 783 108
L 783 108
L 783 108
L 783 108
L 783 108
L 783 108
L 784 108
L 784 108
L 784 108
L 785 108
L 785 108
L 785 108
L 785 108
L 785 108
L 785 108
L 785 108
L 785 108
L 785 108
L 785 108
L 785 108
L 786 108
L 786 108
L 786 108
L 786 108
L 786 108
L 786 107
L 786 107
L 786 107
L 786 107
L 786 107
L 786 107
L 786 107
L 787 107
L 787 107
L 787 107
L 787 107
L 787 107
L 787 107
L 787 107
L 787 107
L 787 107
L 787 107
L 787 107
L 787 107
L 787 107
L 787 107
L 787 107
L 787 107
L 787 107
L 788 107
L 788 107
L 788 106
L 788 106
L 788 106
L 788 106
L 788 106
L 788 106
L 788 106
L 788 106
L 788 106
L 788 106
L 789 106
L 789 106
L 790 106
L 790 106
L 790 106
L 790 106
L 790 106
L 790 106
L 791 106
L 791 106
L 791 106
L 791 106
L 791 106
L 791 106
L 791 106
L 791 106
L 791 105
L 791 105
L 791 105
L 791 105
L 791 105
L 791 105
L 791 105
L 791 105
L 791 105
L 792 105
L 792 105
L 792 105
L 792 105
L 792 105
L 792 105
L 792 105
L 792 105
L 792 105
L 792 105
L 792 105
L 792 105
L 792 105
L 792 105
L 792 105
L 793 105
L 793 105
L 793 104
L 793 104
L 793 104
L 793 104
L 793 104
L 793 104
L 793 104
L 793 104
L 793 104
L 793 104
L 793 104
L 793 104
L 793 104
L 793 104
L 793 104
L 793 104
L 793 104
L 793 104
L 793 104
L 793 104
L 793 104
L 793 104
L 793 104
L 793 104
L 793 104
L 793 103
L 793 103
L 793 103
L 793 103
L 793 103
L 793 103
L 793 103
L 793 103
L 793 103
L 793 103
L 793 103
L 793 103
L 793 103
L 793 103
L 794 103
L 794 103
L 794 103
L 794 103
L 794 103
L 795 103
L 795 103
L 795 103
L 795 103
L 795 103
L 795 103
L 795 103
L 795 102
L 795 102
L 795 102
L 795 102
L 795 102
L 795 102
L 795 102
L 795 102
L 795 102
L 795 102
L 795 102
L 795 102
L 795 102
L 795 102
L 795 102
L 795 102
L 795 102
L 796 102
L 796 102
L 796 102
L 796 102
L 796 102
L 796 102
L 796 102
L 796 102
L 796 102
L 796 101
L 796 101
L 796 101
L 796 101
L 796 101
L 796 101
L 796 101
L 796 101
L 796 101
L 796 101
L 796 101
L 796 101
L 796 101
L 796 101
L 796 101
L 797 101
L 797 101
L 797 101
L 797 101
L 797 101
L 797 101
L 797 101
L 797 101
L 797 101
L 797 101
L 797 101
L 797 100
L 797 100
L 797 100
L 797 100
L 797 100
L 797 100
L 797 100
L 797 100
L 797 100
L 797 100
L 797 100
L 797 100
L 797 100
L 797 100
L 797 100
L 797 100
L 797 100
L 798 100
L 798 100
L 798 100
L 798 100
L 798 100
L 798 100
L 798 100
L 798 100
L 798 100
L 798 99
L 799 99
L 799 99
L 800 99
L 800 99
L 800 99
L 800 99
L 800 99
L 801 99
L 801 99
L 801 99
L 802 99
L 802 99
L 802 99
L 803 99
L 804 99
L 804 99
L 804 99
L 804 99
L 804 99
L 805 99
L 805 99
L 805 99
L 805 99
L 805 99
L 805 99
L 805 98
L 805 98
L 805 98
L 805 98
L 805 98
L 805 98
L 805 98
L 805 98
L 805 98
L 806 98
L 806 98
L 806 98
L 806 98
L 806 98
L 806 98
L 806 98
L 806 98
L 806 98
L 806 98
L 806 98
L 806 98
L 806 98
L 806 98
L 806 98
L 806 98
L 806 98
L 806 97
L 806 97
L 806 97
L 806 97
L 806 97
L 806 97
L 806 97
L 806 97
L 806 97
L 806 97
L 806 97
L 806 97
L 807 97
L 807 97
L 807 97
L 807 97
L 807 97
L 807 97
L 807 97
L 807 97
L 807 97
L 807 97
L 807 97
L 807 97
L 807 97
L 807 97
L 808 96
L 808 96
L 808 96
L 808 96
L 808 96
L 808 96
L 809 96
L 809 96
L 809 96
L 809 96
L 809 96
L 809 96
L 809 96
L 809 96
L 809 96
L 809 96
L 809 96
L 809 96
L 810 96
L 810 96
L 810 96
L 810 96
L 810 96
L 810 96
L 810 96
L 810 96
L 810 95
L 810 95
L 810 95
L 810 95
L 810 95
L 810 95
L 810 95
L 810 95
L 810 95
L 810 95
L 810 95
L 810 95
L 810 95
L 810 95
L 810 95
L 811 95
L 811 95
L 811 95
L 811 95
L 811 95
L 811 95
L 811 95
L 811 95
L 811 95
L 811 95
L 811 94
L 811 94
L 811 94
L 811 94
L 811 94
L 811 94
L 811 94
L 811 94
L 811 94
L 811 94
L 811 94
L 811 94
L 812 94
L 812 94
L 812 94
L 812 94
L 812 94
L 812 94
L 812 94
L 812 94
L 813 94
L 813 94
L 813 94
L 813 94
L 813 94
L 813 94
L 814 93
L 814 93
L 814 93
L 814 93
L 814 93
L 814 93
L 814 93
L 814 93
L 814 93
L 814 93
L 814 93
L 814 93
L 814 93
L 814 93
L 814 93
L 814 93
L 814 93
L 815 93
L 815 93
L 815 93
L 815 93
L 815 93
L 815 93
L 815 93
L 815 93
L 815 93
L 815 92
L 815 92
L 815 92
L 815 92
L 815 92
L 815 92
L 815 92
L 815 92
L 815 92
L 815 92
L 815 92
L 816 92
L 816 92
L 816 92
L 816 92
L 816 92
L 816 92
L 816 92
L 816 92
L 816 92
L 816 92
L 816 92
L 816 92
L 816 92
L 816 92
L 816 92
L 816 91
L 816 91
L 817 91
L 817 91
L 817 91
L 817 91
L 817 91
L 817 91
L 817 91
L 817 91
L 817 91
L 817 91
L 817 91
L 817 91
L 817 91
L 817 91
L 818 91
L 818 91
L 818 91
L 819 91
L 819 91
L 819 91
L 819 91
L 819 91
L 819 91
L 819 91
L 819 90
L 819 90
L 819 90
L 819 90
L 819 90
L 819 90
L 819 90
L 819 90
L 819 90
L 819 90
L 819 90
L 819 90
L 819 90
L 819 90
L 819 90
L 819 90
L 819 90
L 819 90
L 819 90
L 819 90
L 819 90
L 819 90
L 820 90
L 820 90
L 820 90
L 820 90
L 820 89
L 820 89
L 820 89
L 820 89
L 820 89
L 820 89
L 820 89
L 820 89
L 820 89
L 820 89
L 820 89
L 820 89
L 821 89
L 821 89
L 821 89
L 821 89
L 821 89
L 821 89
L 821 89
L 821 89
L 821 89
L 821 89
L 821 89
L 821 89
L 821 89
L 821 89
L 821 88
L 821 88
L 821 88
L 821 88
L 821 88
L 821 88
L 821 88
L 821 88
L 821 88
L 821 88
L 821 88
L 822 88
L 822 88
L 822 88
L 822 88
L 822 88
L 822 88
L 822 88
L 823 88
L 823 88
L 823 88
L 823 88
L 823 88
L 823 88
L 823 88
L 823 88
L 824 87
L 824 87
L 824 87
L 824 87
L 824 87
L 824 87
L 824 87
L 824 87
L 824 87
L 824 87
L 824 87
L 824 87
L 824 87
L 824 87
L 824 87
L 824 87
L 824 87
L 824 87
L 824 87
L 824 87
L 825 87
L 825 87
L 825 87
L 825 87
L 825 87
L 825 86
L 825 86
L 825 86
L 825 86
L 825 86
L 825 86
L 825 86
L 825 86
L 825 86
L 825 86
L 825 86
L 825 86
L 825 86
L 825 86
L 825 86
L 825 86
L 825 86
L 825 86
L 826 86
L 826 86
L 826 86
L 826 86
L 826 86
L 826 86
L 826 86
L 826 86
L 826 85
L 826 85
L 826 85
L 826 85
L 826 85
L 826 85
L 826 85
L 826 85
L 826 85
L 826 85
L 826 85
L 827 85
L 827 85
L 827 85
L 827 85
L 827 85
L 827 85
L 827 85
L 827 85
L 827 85
L 828 85
L 828 85
L 828 85
L 828 85
L 828 85
L 828 85
L 828 84
L 828 84
L 828 84
L 828 84
L 828 84
L 828 84
L 828 84
L 828 84
L 828 84
L 828 84
L 828 84
L 828 84
L 828 84
L 828 84
L 828 84
L 828 84
L 828 84
L 828 84
L 829 84
L 829 84
L 829 84
L 829 84
L 829 84
L 829 84
L 829 84
L 829 84
L 829 83
L 829 83
L 829 83
L 829 83
L 829 83
L 829 83
L 829 83
L 830 83
L 830 83
L 830 83
L 830 83
L 830 83
L 830 83
L 830 83
L 830 83
L 830 83
L 830 83
L 830 83
L 830 83
L 830 83
L 830 83
L 830 83
L 830 83
L 830 83
L 830 83
L 830 83
L 830 82
L 830 82
L 831 82
L 831 82
L 831 82
L 831 82
L 831 82
L 831 82
L 831 82
L 831 82
L 831 82
L 831 82
L 831 82
L 831 82
L 832 82
L 832 82
L 832 82
L 833 82
L 833 82
L 833 82
L 833 82
L 833 82
L 833 82
L 833 82
L 833 82
L 833 82
L 833 81
L 833 81
L 833 81
L 833 81
L 833 81
L 833 81
L 834 81
L 834 81
L 834 81
L 834 81
L 834 81
L 834 81
L 834 81
L 834 81
L 834 81
L 834 81
L 834 81
L 834 81
L 834 81
L 834 81
L 834 81
L 834 81
L 834 81
L 834 81
L 834 81
L 834 81
L 834 80
L 834 80
L 834 80
L 834 80
L 834 80
L 834 80
L 834 80
L 835 80
L 835 80
L 835 80
L 835 80
L 835 80
L 835 80
L 835 80
L 835 80
L 835 80
L 835 80
L 835 80
L 835 80
L 835 80
L 835 80
L 835 80
L 836 80
L 836 80
L 836 80
L 836 80
L 836 79
L 836 79
L 836 79
L 836 79
L 836 79
L 836 79
L 836 79
L 836 79
L 836 79
L 836 79
L 836 79
L 837 79
L 837 79
L 837 79
L 837 79
L 837 79
L 837 79
L 837 79
L 837 79
L 837 79
L 837 79
L 837 79
L 838 79
L 838 79
L 838 79
L 838 79
L 838 78
L 838 78
L 838 78
L 838 78
L 838 78
L 838 78
L 838 78
L 838 78
L 838 78
L 838 78
L 838 78
L 838 78
L 838 78
L 838 78
L 838 78
L 838 78
L 838 78
L 838 78
L 838 78
L 838 78
L 838 78
L 838 78
L 838 78
L 838 78
L 838 78
L 838 77
L 838 77
L 838 77
L 838 77
L 838 77
L 838 77
L 839 77
L 839 77
L 839 77
L 839 77
L 839 77
L 839 77
L 839 77
L 839 77
L 839 77
L 839 77
L 839 77
L 839 77
L 839 77
L 839 77
L 839 77
L 839 77
L 839 77
L 839 77
L 839 77
L 839 77
L 839 76
L 839 76
L 839 76
L 839 76
L 839 76
L 839 76
L 839 76
L 839 76
L 839 76
L 840 76
L 840 76
L 840 76
L 840 76
L 840 76
L 840 76
L 840 76
L 840 76
L 840 76
L 840 76
L 840 76
L 840 76
L 840 76
L 841 76
L 841 76
L 841 76
L 841 76
L 841 75
L 842 75
L 842 75
L 842 75
L 842 75
L 842 75
L 842 75
L 842 75
L 842 75
L 842 75
L 843 75
L 843 75
L 843 75
L 843 75
L 843 75
L 843 75
L 843 75
L 843 75
L 843 75
L 843 75
L 843 75
L 843 75
L 843 75
L 843 75
L 843 75
L 843 75
L 843 74
L 843 74
L 843 74
L 843 74
L 843 74
L 843 74
L 843 74
L 843 74
L 843 74
L 844 74
L 844 74
L 844 74
L 844 74
L 844 74
L 844 74
L 844 74
L 844 74
L 844 74
L 844 74
L 844 74
L 844 74
L 845 74
L 845 74
L 845 74
L 845 74
L 845 74
L 845 73
L 845 73
L 845 73
L 845 73
L 845 73
L 845 73
L 845 73
L 845 73
L 845 73
L 845 73
L 845 73
L 846 73
L 846 73
L 846 73
L 846 73
L 847 73
L 847 73
L 847 73
L 847 73
L 847 73
L 847 73
L 847 73
L 847 73
L 847 73
L 847 73
L 847 73
L 847 72
L 847 72
L 847 72
L 847 72
L 847 72
L 847 72
L 847 72
L 847 72
L 847 72
L 847 72
L 848 72
L 848 72
L 848 72
L 848 72
L 848 72
L 848 72
L 848 72
L 848 72
L 848 72
L 848 72
L 848 72
L 848 72
L 848 72
L 848 72
L 848 72
L 848 72
L 848 71
L 848 71
L 848 71
L 848 71
L 848 71
L 848 71
L 848 71
L 849 71
L 849 71
L 849 71
L 849 71
L 849 71
L 849 71
L 849 71
L 849 71
L 849 71
L 849 71
L 849 71
L 849 71
L 849 71
L 849 71
L 849 71
L 849 71
L 849 71
L 849 71
L 849 71
L 849 70
L 849 70
L 849 70
L 849 70
L 849 70
L 849 70
L 849 70
L 849 70
L 849 70
L 849 70
L 849 70
L 849 70
L 849 70
L 849 70
L 849 70
L 849 70
L 849 70
L 849 70
L 849 70
L 849 70
L 849 70
L 849 70
L 849 70
L 849 70
L 850 70
L 850 69
L 850 69
L 850 69
L 850 69
L 850 69
L 850 69
L 850 69
L 850 69
L 850 69
L 850 69
L 850 69
L 850 69
L 850 69
L 850 69
L 850 69
L 850 69
L 850 69
L 850 69
L 851 69
L 851 69
L 851 69
L 851 69
L 851 69
L 851 69
L 851 69
L 851 69
L 852 68
L 852 68
L 852 68
L 852 68
L 852 68
L 852 68
L 852 68
L 852 68
L 852 68
L 852 68
L 852 68
L 852 68
L 852 68
L 852 68
L 852 68
L 852 68
L 852 68
L 852 68
L 852 68
L 852 68
L 852 68
L 852 68
L 852 68
L 852 68
L 852 68
L 852 68
L 852 67
L 852 67
L 852 67
L 852 67
L 852 67
L 852 67
L 852 67
L 852 67
L 852 67
L 852 67
L 853 67
L 853 67
L 853 67
L 853 67
L 853 67
L 853 67
L 853 67
L 853 67
L 853 67
L 853 67
L 853 67
L 853 67
L 853 67
L 853 67
L 853 67
L 853 67
L 853 66
L 853 66
L 853 66
L 853 66
L 853 66
L 853 66
L 853 66
L 853 66
L 853 66
L 853 66
L 853 66
L 853 66
L 853 66
L 853 66
L 853 66
L 853 66
L 853 66
L 853 66
L 853 66
L 853 66
L 853 66
L 853 66
L 854 66
L 854 66
L 854 66
L 854 66
L 854 65
L 854 65
L 854 65
L 854 65
L 854 65
L 854 65
L 854 65
L 854 65
L 854 65
L 854 65
L 854 65
L 854 65
L 854 65
L 854 65
L 854 65
L 854 65
L 854 65
L 854 65
L 854 65
L 854 65
L 854 65
L 854 65
L 854 65
L 854 65
L 854 65
L 854 65
L 854 64
L 854 64
L 854 64
L 854 64
L 854 64
L 855 64
L 855 64
L 855 64
L 855 64
L 855 64
L 855 64
L 855 64
L 855 64
L 855 64
L 855 64
L 855 64
L 855 64
L 855 64
L 855 64
L 855 64
L 855 64
L 856 64
L 856 64
L 856 64
L 856 64
L 856 64
L 856 63
L 856 63
L 856 63
L 856 63
L 856 63
L 856 63
L 856 63
L 856 63
L 856 63
L 857 63
L 857 63
L 857 63
L 857 63
L 857 63
L 857 63
L 857 63
L 857 63
L 857 63
L 857 63
L 857 63
L 857 63
L 857 63
L 857 63
L 857 63
L 857 63
L 857 63
L 857 62
L 857 62
L 857 62
L 857 62
L 857 62
L 857 62
L 857 62
L 857 62
L 858 62
L 858 62
L 858 62
L 858 62
L 858 62
L 858 62
L 858 62
L 858 62
L 858 62
L 858 62
L 858 62
L 858 62
L 858 62
L 858 62
L 858 62
L 858 62
L 858 62
L 858 62
L 858 61
L 858 61
L 859 61
L 859 61
L 859 61
L 859 61
L 859 61
L 860 61
L 860 61
L 860 61
L 860 61
L 861 61
L 861 61
L 861 61
L 861 61
L 861 61
L 861 61
L 861 61
L 861 61
L 861 61
L 861 61
L 861 61
L 861 61
L 861 61
L 861 61
L 861 60
L 861 60
L 861 60
L 861 60
L 861 60
L 861 60
L 861 60
L 862 60
L 862 60
L 862 60
L 862 60
L 862 60
L 862 60
L 862 60
L 862 60
L 862 60
L 862 60
L 862 60
L 862 60
L 862 60
L 862 60
L 862 60
L 862 60
L 862 60
L 862 60
L 862 60
L 862 59
L 862 59
L 862 59
L 862 59
L 863 59
L 863 59
L 863 59
L 863 59
L 863 59
L 863 59
L 863 59
L 863 59
L 863 59
L 863 59
L 863 59
L 863 59
L 863 59
L 863 59
L 863 59
L 864 59
L 864 59
L 864 59
L 864 59
L 864 59
L 864 59
L 864 59
L 864 58
L 864 58
L 864 58
L 864 58
L 864 58
L 864 58
L 864 58
L 864 58
L 864 58
L 864 58
L 864 58
L 865 58
L 865 58
L 865 58
L 865 58
L 865 58
L 865 58
L 865 58
L 866 58
L 866 58
L 866 58
L 866 58
L 866 58
L 866 58
L 866 58
L 866 58
L 867 57
L 867 57
L 867 57
L 867 57
L 867 57
L 867 57
L 867 57
L 867 57
L 867 57
L 867 57
L 867 57
L 867 57
L 867 57
L 867 57
L 867 57
L 867 57
L 867 57
L 867 57
L 867 57
L 867 57
L 867 57
L 867 57
L 868 57
L 868 57
L 868 57
L 868 57
L 868 56
L 868 56
L 868 56
L 868 56
L 868 56
L 868 56
L 868 56
L 868 56
L 868 56
L 869 56
L 869 56
L 869 56
L 869 56
L 869 56
L 869 56
L 869 56
L 869 56
L 869 56
L 869 56
L 869 56
L 869 56
L 869 56
L 869 56
L 869 56
L 869 56
L 869 56
L 869 55
L 869 55
L 870 55
L 870 55
L 870 55
L 870 55
L 870 55
L 870 55
L 870 55
L 870 55
L 870 55
L 871 55
L 871 55
L 871 55
L 871 55
L 871 55
L 871 55
L 871 55
L 871 55
L 871 55
L 871 55
L 871 55
L 871 55
L 871 55
L 871 55
L 871 55
L 871 54
L 872 54
L 872 54
L 872 54
L 872 54
L 872 54
L 872 54
L 872 54
L 872 54
L 872 54
L 872 54
L 872 54
L 872 54
L 872 54
L 872 54
L 873 54
L 873 54
L 873 54
L 873 54
L 873 54
L 873 54
L 873 54
L 873 54
L 873 54
L 873 54
L 873 54
L 873 53
L 873 53
L 873 53
L 873 53
L 873 53
L 873 53
L 873 53
L 873 53
L 873 53
L 874 53
L 874 53
L 874 53
L 874 53
L 874 53
L 874 53
L 874 53
L 874 53
L 874 53
L 874 53
L 874 53
L 874 53
L 874 53
L 875 53
L 875 53
L 875 53
L 875 52
L 875 52
L 875 52
L 876 52
L 876 52
L 876 52
L 876 52
L 876 52
L 876 52
L 876 52
L 876 52
L 876 52
L 876 52
L 876 52
L 876 52
L 876 52
L 876 52
L 876 52
L 877 52
L 877 52
L 877 52
L 877 52
L 877 52
L 877 52
L 877 52
L 877 52
L 877 51
L 877 51
L 877 51
L 877 51
L 877 51
L 877 51
L 877 51
L 877 51
L 877 51
L 877 51
L 877 51
L 878 51
L 878 51
L 878 51
L 878 51
L 878 51
L 878 51
L 878 51
L 878 51
L 878 51
L 878 51
L 878 51
L 878 51
L 878 51
L 878 51
L 878 51
L 878 50
L 878 50
L 878 50
L 878 50
L 878 50
L 878 50
L 878 50
L 879 50
L 879 50
L 879 50
L 879 50
L 879 50
L 879 50
L 879 50
L 879 50
L 879 50
L 879 50
L 879 50
L 879 50
L 879 50
L 880 50
L 880 50
L 880 50
L 880 50
L 880 50
L 880 50
L 881 49
L 881 49
L 881 49
L 881 49
L 881 49
L 881 49
L 881 49
L 881 49
L 881 49
L 881 49
L 881 49
L 881 49
L 881 49
L 881 49
L 881 49
L 882 49
L 882 49
L 882 49
L 882 49
L 882 49
L 882 49
L 882 49
L 882 49
L 882 49
L 882 49
L 882 49
L 882 48
L 883 48
L 883 48
L 883 48
L 883 48
L 883 48
L 883 48
L 883 48
L 884 48
L 884 48
L 884 48
L 884 48
L 884 48
L 885 48
L 885 48
L 885 48
L 886 48
L 886 48
L 886 48
L 886 48
L 886 48
L 886 48
L 886 48
L 886 48
L 886 48
L 886 48
L 886 47
L 886 47
L 886 47
L 886 47
L 886 47
L 886 47
L 886 47
L 886 47
L 886 47
L 886 47
L 886 47
L 886 47
L 887 47
L 887 47
L 887 47
L 887 47
L 887 47
L 887 47
L 887 47
L 887 47
L 887 47
L 887 47
L 887 47
L 887 47
L 887 47
L 887 47
L 887 46
L 888 46
L 888 46
L 888 46
L 888 46
L 888 46
L 888 46
L 888 46
L 888 46
L 888 46
L 888 46
L 888 46
L 888 46
L 888 46
L 888 46
L 888 46
L 888 46
L 888 46
L 888 46
L 889 46
L 889 46
L 889 46
L 890 46
L 890 46
L 890 46
L 890 46
L 890 45
L 890 45
L 891 45
L 891 45
L 891 45
L 891 45
L 891 45
L 891 45
L 891 45
L 891 45
L 891 45
L 891 45
L 891 45
L 891 45
L 891 45
L 891 45
L 891 45
L 891 45
L 891 45
L 891 45
L 892 45
L 892 45
L 892 45
L 892 45
L 892 45
L 892 45
L 892 44
L 892 44
L 892 44
L 892 44
L 892 44
L 892 44
L 893 44
L 893 44
L 893 44
L 893 44
L 893 44
L 893 44
L 893 44
L 893 44
L 893 44
L 893 44
L 893 44
L 893 44
L 893 44
L 893 44
L 893 44
L 893 44
L 893 44
L 893 44
L 893 44
L 894 43
L 894 43
L 894 43
L 895 43
L 895 43
L 895 43
L 895 43
L 895 43
L 895 43
L 895 43
L 895 43
L 895 43
L 895 43
L 895 43
L 896 43
L 896 43
L 896 43
L 896 43
L 896 43
L 896 43
L 896 43
L 897 43
L 897 43
L 897 43
L 897 43
L 897 43
L 897 42
L 897 42
L 897 42
L 897 42
L 897 42
L 897 42
L 897 42
L 898 42
L 898 42
L 898 42
L 898 42
L 898 42
L 898 42
L 898 42
L 898 42
L 898 42
L 898 42
L 898 42
L 898 42
L 898 42
L 898 42
L 899 42
L 899 42
L 899 42
L 899 42
L 899 42
L 899 41
L 899 41
L 900 41
L 900 41
L 900 41
L 900 41
L 900 41
L 900 41
L 900 41
L 900 41
L 900 41
L 900 41
L 900 41
L 900 41
L 900 41
L 901 41
L 901 41
L 901 41
L 901 41
L 901 41
L 901 41
L 901 41
L 901 41
L 901 41
L 901 41
L 901 41
L 901 40
L 901 40
L 901 40
L 901 40
L 901 40
L 901 40
L 902 40
L 902 40
L 902 40
L 902 40
L 902 40
L 902 40
L 902 40
L 902 40
L 902 40
L 902 40
L 902 40
L 902 40
L 902 40
L 902 40
L 903 40
L 903 40
L 903 40
L 903 40
L 903 40
L 903 40
L 903 39
L 903 39
L 903 39
L 903 39
L 903 39
L 903 39
L 903 39
L 903 39
L 904 39
L 904 39
L 904 39
L 905 39
L 905 39
L 905 39
L 905 39
L 905 39
L 905 39
L 905 39
L 905 39
L 906 39
L 906 39
L 906 39
L 906 39
L 906 39
L 906 39
L 906 39
L 906 38
L 906 38
L 906 38
L 906 38
L 906 38
L 906 38
L 906 38
L 906 38
L 906 38
L 907 38
L 907 38
L 907 38
L 907 38
L 907 38
L 907 38
L 907 38
L 907 38
L 907 38
L 907 38
L 907 38
L 907 38
L 907 38
L 907 38
L 908 38
L 908 38
L 908 38
L 908 37
L 908 37
L 908 37
L 908 37
L 908 37
L 908 37
L 908 37
L 908 37
L 909 37
L 909 37
L 909 37
L 909 37
L 909 37
L 909 37
L 909 37
L 909 37
L 909 37
L 910 37
L 910 37
L 910 37
L 910 37
L 910 37
L 910 37
L 910 37
L 910 37
L 910 37
L 910 36
L 910 36
L 910 36
L 910 36
L 910 36
L 910 36
L 910 36
L 910 36
L 910 36
L 910 36
L 910 36
L 910 36
L 910 36
L 911 36
L 911 36
L 911 36
L 911 36
L 911 36
L 911 36
L 911 36
L 911 36
L 911 36
L 911 36
L 911 36
L 911 36
L 911 35
L 911 35
L 911 35
L 911 35
L 911 35
L 912 35
L 912 35
L 912 35
L 912 35
L 912 35
L 912 35
L 912 35
L 912 35
L 912 35
L 912 35
L 912 35
L 912 35
L 912 35
L 912 35
L 912 35
L 912 35
L 912 35
L 912 35
L 912 35
L 913 35
L 913 35
L 914 34
L 914 34
L 914 34
L 914 34
L 914 34
L 914 34
L 914 34
L 914 34
L 914 34
L 915 34
L 915 34
L 915 34
L 915 34
L 915 34
L 915 34
L 915 34
L 915 34
L 915 34
L 915 34
L 915 34
L 915 34
L 915 34
L 915 34
L 915 34
L 915 34
L 915 34
L 915 33
L 915 33
L 915 33
L 915 33
L 915 33
L 915 33
L 915 33
L 915 33
L 915 33
L 915 33
L 915 33
L 916 33
L 916 33
L 916 33
L 916 33
L 916 33
L 916 33
L 916 33
L 916 33
L 916 33
L 916 33
L 916 33
L 916 33
L 916 33
L 916 33
L 916 33
L 916 32
L 916 32
L 916 32
L 916 32
L 916 32
L 916 32
L 916 32
L 917 32
L 917 32
L 917 32
L 917 32
L 917 32
L 917 32
L 917 32
L 917 32
L 917 32
L 917 32
L 917 32
L 917 32
L 917 32
L 917 32
L 917 32
L 917 32
L 917 32
L 918 32
L 918 32
L 918 31
L 918 31
L 918 31
L 918 31
L 918 31
L 919 31
L 919 31
L 919 31
L 919 31
L 919 31
L 919 31
L 919 31
L 919 31
L 919 31
L 919 31
L 919 31
L 919 31
L 919 31
L 919 31
L 919 31
L 920 31
L 920 31
L 920 31
L 920 31
L 920 31
L 920 31
L 920 30
L 920 30
L 920 30
L 920 30
L 920 30
L 920 30
L 921 30
L 921 30
L 921 30
L 921 30
L 921 30
L 921 30
L 921 30
L 921 30
L 921 30
L 921 30
L 921 30
L 921 30
L 921 30
L 921 30
L 921 30
L 921 30
L 921 30
L 921 30
L 922 30
L 922 30
L 922 29
L 922 29
L 922 29
L 922 29
L 922 29
L 922 29
L 922 29
L 922 29
L 922 29
L 922 29
L 922 29
L 922 29
L 922 29
L 922 29
L 922 29
L 922 29
L 923 29
L 923 29
L 923 29
L 923 29
L 923 29
L 923 29
L 923 29
L 923 29
L 923 29
L 924 29
L 924 28
L 924 28
L 924 28
L 924 28
L 924 28
L 924 28
L 924 28
L 924 28
L 924 28
L 924 28
L 924 28
L 924 28
L 924 28
L 924 28
L 925 28
L 925 28
L 925 28
L 925 28
L 925 28
L 925 28
L 925 28
L 925 28
L 925 28
L 925 28
L 925 28
L 925 28
L 926 27
L 926 27
L 926 27
L 926 27
L 926 27
L 926 27
L 926 27
L 926 27
L 926 27
L 926 27
L 926 27
L 926 27
L 926 27
L 926 27
L 926 27
L 927 27
L 927 27
L 927 27
L 927 27
L 927 27
L 927 27
L 927 27
L 927 27
L 927 27
L 927 27
L 927 26
L 927 26
L 927 26
L 927 26
L 927 26
L 927 26
L 927 26
L 927 26
L 927 26
L 927 26
L 927 26
L 927 26
L 927 26
L 927 26
L 927 26
L 928 26
L 928 26
L 928 26
L 928 26
L 928 26
L 928 26
L 928 26
L 928 26
L 929 26
L 929 26
L 929 26
L 929 25
L 929 25
L 929 25
L 929 25
L 929 25
L 929 25
L 929 25
L 929 25
L 929 25
L 929 25
L 929 25
L 929 25
L 929 25
L 929 25
L 930 25
L 930 25
L 930 25
L 930 25
L 930 25
L 930 25
L 930 25
L 930 25
L 930 25
L 930 25
L 930 25
L 930 25
L 930 24
L 930 24
L 930 24
L 930 24
L 930 24
L 930 24
L 931 24
L 931 24
L 931 24
L 931 24
L 931 24
L 931 24
L 931 24
L 931 24
L 931 24
L 931 24
L 931 24
L 931 24
L 931 24
L 931 24
L 931 24
L 931 24
L 931 24
L 931 24
L 931 24
L 931 24
L 931 23
L 931 23
L 931 23
L 931 23
L 931 23
L 932 23
L 932 23
L 932 23
L 932 23
L 932 23
L 932 23
L 932 23
L 932 23
L 932 23
L 932 23
L 932 23
L 932 23
L 932 23
L 933 23
L 933 23
L 933 23
L 933 23
L 934 23
L 934 23
L 934 23
L 934 23
L 934 22
L 934 22
L 934 22
L 934 22
L 934 22
L 934 22
L 934 22
L 934 22
L 934 22
L 934 22
L 934 22
L 934 22
L 934 22
L 934 22
L 934 22
L 934 22
L 935 22
L 935 22
L 935 22
L 935 22
L 935 22
L 935 22
L 935 22
L 935 22
L 935 22
L 935 22
L 936 21
L 936 21
L 936 21
L 936 21
L 936 21
L 936 21
L 936 21
L 936 21
L 936 21
L 936 21
L 936 21
L 936 21
L 936 21
L 936 21
L 936 21
L 936 21
L 936 21
L 936 21
L 936 21
L 936 21
L 936 21
L 936 21
L 936 21
L 936 21
L 936 21
L 936 21
L 936 20
L 936 20
L 937 20
L 937 20
L 937 20
L 937 20
L 937 20
L 937 20
L 937 20
L 938 20
L 938 20
L 938 20
L 938 20
L 938 20
L 938 20
L 938 20
L 938 20
L 938 20
L 938 20
L 939 20
L 939 20
L 939 20
L 939 20
L 939 20
L 939 20
L 939 20
L 939 19
L 939 19
L 939 19
L 939 19
L 939 19
L 940 19
L 940 19
L 940 19
L 940 19
L 940 19
L 940 19
L 940 19
L 940 19
L 940 19
L 940 19
L 940 19
L 940 19
L 940 19
L 940 19
L 940 19
L 940 19
L 940 19
L 940 19
L 940 19
L 940 19
L 940 18
L 940 18
L 941 18
L 941 18
L 941 18
L 941 18
L 941 18
L 941 18
L 941 18
L 941 18
L 941 18
L 942 18
L 942 18
L 942 18
L 942 18
L 942 18
L 942 18
L 942 18
L 943 18
L 943 18
L 943 18
L 943 18
L 943 18
L 943 18
L 943 18
L 943 18
L 943 17
L 943 17
L 944 17
L 944 17
L 944 17
L 944 17
L 944 17
L 944 17
L 944 17
L 944 17
L 944 17
L 944 17
L 944 17
L 944 17
L 944 17
L 944 17
L 944 17
L 944 17
L 945 17
L 945 17
L 945 17
L 945 17
L 945 17
L 945 17
L 945 17
L 945 17
L 945 16
L 945 16
L 946 16
L 946 16
L 946 16
L 946 16
L 946 16
L 946 16
L 946 16
L 946 16
L 946 16
L 946 16
L 947 16
L 947 16
L 947 16
L 947 16
L 947 16
L 948 16
L 948 16
L 948 16
L 948 16
L 948 16
L 948 16
L 948 16
L 948 16
L 948 16
L 948 15
L 948 15
L 948 15
L 948 15
L 949 15
L 949 15
L 949 15
L 949 15
L 949 15
L 949 15
L 949 15
L 949 15
L 949 15
L 949 15
L 949 15
L 949 15
L 949 15
L 949 15
L 949 15
L 949 15
L 949 15
L 949 15
L 949 15
L 949 15
L 949 15
L 949 15
L 950 14
L 950 14
L 950 14
L 950 14
L 951 14
L 953 14
L 953 14
L 953 14
L 953 14
L 953 14
L 953 14
L 953 14
L 953 14
L 953 14
L 953 14
L 953 14
L 953 14
L 953 14
L 953 14
L 953 14
L 953 14
L 953 14
L 953 14
L 953 14
L 953 14
L 953 14
L 953 13
L 953 13
L 954 13
L 954 13
L 954 13
L 954 13
L 954 13
L 954 13
L 954 13
L 954 13
L 954 13
L 954 13
L 954 13
L 954 13
L 954 13
L 954 13
L 954 13
L 954 13
L 954 13
L 955 13
L 955 13
L 955 13
L 955 13
L 955 13
L 955 13
L 955 13
L 955 12
L 955 12
L 955 12
L 955 12
L 955 12
L 955 12
L 955 12
L 955 12
L 955 12
L 955 12
L 955 12
L 956 12
L 956 12
L 956 12
L 956 12
L 956 12
L 956 12
L 957 12
L 957 12
L 957 12" style="stroke-width:2;stroke:rgba(129,199,239,1.0);fill:none"/></svg>